<svg width="52" height="52" viewBox="0 0 52 52" fill="none" xmlns="http://www.w3.org/2000/svg">
<circle cx="26" cy="26" r="26" fill="#D6D6D6"/>
<path d="M42.0617 19.8074L27.2429 14.228C26.4354 13.924 25.5642 13.924 24.7572 14.228L9.93793 19.8074C8.68736 20.2781 8.68736 22.3048 9.93793 22.7755L12.5214 23.7481C11.9546 24.6069 11.6061 25.6544 11.5715 26.8015C11.0599 27.1609 10.6997 27.8093 10.6997 28.5834C10.6997 29.2852 11.0015 29.8757 11.4361 30.2533L10.0798 37.7324C9.96183 38.3828 10.3656 39 10.9091 39H13.8899C14.4339 39 14.8377 38.3828 14.7197 37.7324L13.3634 30.2533C13.798 29.8757 14.0998 29.2852 14.0998 28.5834C14.0998 27.8302 13.756 27.1999 13.2678 26.8341C13.3082 25.8562 13.7162 24.9916 14.367 24.4435L24.7567 28.3555C25.238 28.5365 26.1613 28.7624 27.2424 28.3555L42.0617 22.7761C43.3128 22.3048 43.3128 20.2788 42.0617 19.8074ZM27.7418 30.3471C26.2261 30.9174 24.9346 30.6023 24.2573 30.3471L16.5531 27.4467L15.7998 34.8334C15.7998 37.1348 20.3664 39 25.9998 39C31.6332 39 36.1998 37.1348 36.1998 34.8334L35.4465 27.446L27.7418 30.3471Z" fill="#757575"/>
</svg>
