<svg width="20" height="16" viewBox="0 0 20 16" fill="none" xmlns="http://www.w3.org/2000/svg">
<path d="M17.5555 2.56041H14.5905L13.8841 0.600436C13.8353 0.466321 13.7459 0.350393 13.6281 0.268488C13.5102 0.186584 13.3697 0.142697 13.2258 0.142823H6.53717C6.24286 0.142823 5.97906 0.3263 5.88096 0.600436L5.17242 2.56041H2.20747C1.24386 2.56041 0.463379 3.33317 0.463379 4.28725V14.1303C0.463379 15.0843 1.24386 15.8571 2.20747 15.8571H17.5555C18.5191 15.8571 19.2995 15.0843 19.2995 14.1303V4.28725C19.2995 3.33317 18.5191 2.56041 17.5555 2.56041ZM17.7299 14.1303C17.7299 14.2252 17.6514 14.3029 17.5555 14.3029H2.20747C2.11154 14.3029 2.03306 14.2252 2.03306 14.1303V4.28725C2.03306 4.19227 2.11154 4.11457 2.20747 4.11457H6.27774L6.65054 3.08278L7.14978 1.69698H12.611L13.1102 3.08278L13.483 4.11457H17.5555C17.6514 4.11457 17.7299 4.19227 17.7299 4.28725V14.1303ZM9.88146 5.49604C7.95424 5.49604 6.39328 7.04157 6.39328 8.94973C6.39328 10.8579 7.95424 12.4034 9.88146 12.4034C11.8087 12.4034 13.3696 10.8579 13.3696 8.94973C13.3696 7.04157 11.8087 5.49604 9.88146 5.49604ZM9.88146 11.0219C8.726 11.0219 7.78855 10.0938 7.78855 8.94973C7.78855 7.8057 8.726 6.87752 9.88146 6.87752C11.0369 6.87752 11.9744 7.8057 11.9744 8.94973C11.9744 10.0938 11.0369 11.0219 9.88146 11.0219Z" fill="#818181"/>
</svg>
