<svg width="16" height="14" viewBox="0 0 16 14" fill="none" xmlns="http://www.w3.org/2000/svg">
<path d="M9.11672 0.25C5.3521 0.25 2.2995 3.2725 2.2995 7H0.0270996L3.05697 10L6.08684 7H3.81444C3.81444 4.0975 6.18532 1.75 9.11672 1.75C12.0481 1.75 14.419 4.0975 14.419 7C14.419 9.9025 12.0481 12.25 9.11672 12.25C7.97294 12.25 6.91248 11.8825 6.0414 11.275L4.96579 12.355C6.11714 13.225 7.55633 13.75 9.11672 13.75C12.8813 13.75 15.9339 10.7275 15.9339 7C15.9339 3.2725 12.8813 0.25 9.11672 0.25Z" fill="white"/>
</svg>
