<svg width="24" height="24" viewBox="0 0 24 24" fill="none" xmlns="http://www.w3.org/2000/svg">
<path d="M13.7673 21.1465C13.7673 19.5966 12.5064 18.3401 10.9508 18.3401C9.39522 18.3401 8.13428 19.5966 8.13428 21.1465C8.13428 22.6965 9.39522 23.953 10.9508 23.953C12.5064 23.953 13.7673 22.6965 13.7673 21.1465Z" fill="#F7C92B"/>
<path d="M10.9507 18.3401C10.666 18.3401 10.3911 18.3826 10.1321 18.4609C11.2883 18.8103 12.13 19.8802 12.13 21.1465C12.13 22.4127 11.2883 23.4828 10.1321 23.8322C10.3911 23.9105 10.666 23.953 10.9507 23.953C12.5063 23.953 13.7672 22.6965 13.7672 21.1465C13.7672 19.5966 12.5063 18.3401 10.9507 18.3401Z" fill="#F2B51D"/>
<path d="M11.2798 4.76726C10.3751 4.94835 9.49468 4.36461 9.31286 3.46318C9.13105 2.56193 9.71703 1.68449 10.6215 1.5034C11.526 1.32231 12.4066 1.90605 12.5884 2.80748C12.7701 3.70872 12.1843 4.58616 11.2798 4.76726Z" fill="#F7C92B"/>
<path d="M12.5884 2.80748C12.4066 1.90605 11.526 1.32231 10.6215 1.5034C10.5373 1.52025 10.456 1.54332 10.3777 1.57152C10.9057 1.76414 11.3238 2.21788 11.4427 2.80748C11.6076 3.62486 11.1409 4.42265 10.3779 4.69914C10.6571 4.80095 10.967 4.82988 11.2798 4.76726C12.1843 4.58616 12.7701 3.70872 12.5884 2.80748Z" fill="#F2B51D"/>
<path d="M17.9269 20.6771H3.97481C2.72634 20.6771 1.71436 19.6687 1.71436 18.4249C1.71436 17.7362 2.02716 17.0845 2.56508 16.6522L3.01328 16.2919C4.05003 15.4587 4.65289 14.2028 4.65289 12.8757V10.5087C4.65289 7.0163 7.49402 4.1853 10.9989 4.1853C14.5036 4.1853 17.3449 7.0163 17.3449 10.5087V12.9194C17.3449 14.2215 17.9252 15.4565 18.9289 16.2904L19.3654 16.653C19.8863 17.0856 20.1873 17.7265 20.1873 18.4022V18.4249C20.1873 19.6687 19.1753 20.6771 17.9269 20.6771Z" fill="#F7E249"/>
<path d="M19.3652 16.6529L18.9288 16.2903C17.925 15.4563 17.3447 14.2214 17.3447 12.9192V10.5084C17.3447 7.01624 14.5034 4.18506 10.9987 4.18506C10.3777 4.18506 9.77778 4.27441 9.21069 4.44012C11.8449 5.20935 13.7687 7.63495 13.7687 10.5084V12.9192C13.7687 14.2214 14.349 15.4563 15.3527 16.2903L15.7893 16.6529C16.31 17.0856 16.6113 17.7264 16.6113 18.4021V18.4248C16.6113 19.6686 15.5993 20.677 14.3508 20.677H17.9269C19.1752 20.677 20.1872 19.6686 20.1872 18.4248V18.4021C20.1872 17.7264 19.8861 17.0856 19.3652 16.6529Z" fill="#F7C92B"/>
</svg>
