<svg width="20" height="16" viewBox="0 0 20 16" fill="none" xmlns="http://www.w3.org/2000/svg">
<path d="M17.5556 2.56041H14.5906L13.8843 0.600436C13.8355 0.466321 13.746 0.350393 13.6282 0.268488C13.5104 0.186584 13.3699 0.142697 13.2259 0.142823H6.53729C6.24298 0.142823 5.97918 0.3263 5.88108 0.600436L5.17254 2.56041H2.20759C1.24398 2.56041 0.463501 3.33317 0.463501 4.28725V14.1303C0.463501 15.0843 1.24398 15.8571 2.20759 15.8571H17.5556C18.5192 15.8571 19.2997 15.0843 19.2997 14.1303V4.28725C19.2997 3.33317 18.5192 2.56041 17.5556 2.56041ZM17.73 14.1303C17.73 14.2252 17.6515 14.3029 17.5556 14.3029H2.20759C2.11167 14.3029 2.03318 14.2252 2.03318 14.1303V4.28725C2.03318 4.19227 2.11167 4.11457 2.20759 4.11457H6.27786L6.65066 3.08278L7.1499 1.69698H12.6111L13.1103 3.08278L13.4831 4.11457H17.5556C17.6515 4.11457 17.73 4.19227 17.73 4.28725V14.1303ZM9.88158 5.49604C7.95436 5.49604 6.3934 7.04157 6.3934 8.94973C6.3934 10.8579 7.95436 12.4034 9.88158 12.4034C11.8088 12.4034 13.3698 10.8579 13.3698 8.94973C13.3698 7.04157 11.8088 5.49604 9.88158 5.49604ZM9.88158 11.0219C8.72612 11.0219 7.78868 10.0938 7.78868 8.94973C7.78868 7.8057 8.72612 6.87752 9.88158 6.87752C11.037 6.87752 11.9745 7.8057 11.9745 8.94973C11.9745 10.0938 11.037 11.0219 9.88158 11.0219Z" fill="#818181"/>
</svg>
