<svg width="351" height="251" viewBox="0 0 351 251" fill="none" xmlns="http://www.w3.org/2000/svg">
<path d="M44.4642 228.736C44.4642 228.736 7.13282 189.279 30.9131 142.882C54.6808 96.4844 86.5842 119.84 85.0674 65.8247C83.538 11.8095 158.477 7.20369 182.319 22.8661C206.162 38.541 208.268 48.6312 257.509 42.4064C306.749 36.1816 329.639 82.1523 313.468 114.054C294.564 151.315 351.501 154.917 308.241 228.824L44.4642 228.736Z" fill="#EBF3FA"/>
<g opacity="0.4">
<path opacity="0.4" d="M302.424 90.0588C302.424 92.4433 302.211 94.7901 301.797 97.0617C300.807 102.508 298.676 107.566 295.667 111.971C288.672 122.212 276.926 128.926 263.601 128.926C247.756 128.926 234.13 119.426 228.087 105.796C227.298 104.002 226.633 102.132 226.107 100.212C225.229 96.9738 224.765 93.5728 224.765 90.0713C224.765 87.235 225.066 84.4615 225.643 81.8009C225.643 81.7758 225.655 81.7381 225.668 81.713C227.285 74.3462 230.983 67.7574 236.123 62.6119C237.577 61.1561 239.156 59.8007 240.824 58.5834C241.626 58.0061 242.441 57.4539 243.293 56.9393C249.197 53.2998 256.155 51.204 263.601 51.204C264.591 51.204 265.569 51.2416 266.534 51.3169C267.901 51.4173 269.242 51.593 270.571 51.8315C276.137 52.8355 281.289 55.0443 285.764 58.1567C288.547 60.1019 291.067 62.3986 293.248 64.9839C294.401 66.3393 295.454 67.7825 296.407 69.2885C296.996 70.2298 297.56 71.1961 298.074 72.1876C299.315 74.5721 300.306 77.1072 301.033 79.7427C301.948 83.0182 302.424 86.482 302.424 90.0588Z" fill="#D7E5FF"/>
<g opacity="0.4">
<path opacity="0.4" d="M250.414 72.652C248.859 75.1118 251.065 79.3788 246.415 78.2116C241.764 77.0445 238.931 76.5299 238.668 79.1152C238.404 81.7005 242.153 81.7005 242.153 84.4113C242.153 87.1221 240.473 88.0257 237.89 86.7331C235.308 85.4404 234.568 83.5705 231.56 84.7376C228.564 85.9048 226.821 85.1267 226.132 82.8049C226.007 82.3908 225.844 82.0645 225.656 81.7884C225.656 81.7633 225.668 81.7256 225.681 81.7005C227.298 74.3337 230.996 67.7449 236.135 62.5994C237.59 61.1436 239.169 59.7882 240.836 58.5709C241.639 57.9936 242.453 57.4414 243.306 56.9268C244.522 56.977 245.963 57.4288 247.192 58.9599C249.9 62.3233 251.705 60.6416 251.065 64.5196C250.414 68.3975 251.454 68.9121 253.648 68.7866C255.842 68.6611 258.424 68.6611 258.687 70.3428C258.938 72.0119 251.968 70.2047 250.414 72.652Z" fill="#AEC3FF"/>
<path opacity="0.4" d="M266.484 95.9196C266.484 95.9196 263.062 97.024 262.159 94.627C261.257 92.2299 262.285 91.7154 259.251 91.0126C256.218 90.3098 255.954 88.239 254.024 88.49C252.093 88.7536 253.059 89.5191 250.802 91.2008C248.546 92.8825 246.477 92.1044 246.54 95.2043C246.603 98.3041 249.962 98.7936 250.639 100.827C251.316 102.86 250.15 103.738 251.604 105.282C253.059 106.838 255.766 106.16 254.513 108.281C253.259 110.415 251.316 112.059 252.281 115.36C253.247 118.66 252.57 118.848 254.212 121.17C255.854 123.492 259.051 124.27 259.539 122.726C260.028 121.17 257.308 119.137 258.186 117.593C259.063 116.037 260.505 117.104 261.094 114.782C261.671 112.461 264.027 112.461 264.228 110.842C264.416 109.223 261.382 106.775 262.548 105.734C263.714 104.705 266.033 107.604 267.838 105.018C269.643 102.433 268.415 100.362 270.295 97.9151C272.175 95.4678 267.775 94.5015 266.484 95.9196Z" fill="#AEC3FF"/>
<path opacity="0.4" d="M302.424 90.0588C302.424 92.4433 302.211 94.7901 301.797 97.0617C300.807 102.508 298.676 107.566 295.667 111.971C294.64 112.31 293.599 112.297 292.559 111.883C287.72 109.951 291.305 104.705 293.235 102.094C295.166 99.4713 290.239 100.638 286.654 98.2163C283.069 95.7941 287.043 89.2932 283.357 90.36C279.672 91.4267 275.222 92.7821 273.091 89.1928C270.96 85.6035 275.021 85.0262 273.191 82.0142C271.348 79.0148 274.256 77.2578 277.929 76.9691C281.615 76.6805 281.126 74.0575 285.676 73.6685C290.227 73.2794 290.127 79.1026 295.166 78.7136C300.205 78.3245 299.98 79.4917 299.98 79.4917C300.343 79.4791 300.694 79.5544 301.033 79.7176C301.948 83.0182 302.424 86.482 302.424 90.0588Z" fill="#AEC3FF"/>
<path opacity="0.4" d="M298.087 72.1625C293.9 74.2081 292.22 68.661 288.635 70.3176C285.025 71.9993 285.664 68.7614 282.818 66.7032C279.973 64.6325 274.294 68.3849 274.557 65.147C274.821 61.9217 279.07 62.8253 279.985 60.24C280.888 57.6547 285.025 58.3073 285.025 58.3073C285.263 58.2194 285.514 58.1567 285.777 58.1316C288.56 60.0768 291.079 62.3735 293.261 64.9588C294.414 66.3142 295.467 67.7574 296.42 69.2634C297.009 70.2047 297.573 71.171 298.087 72.1625Z" fill="#AEC3FF"/>
<path opacity="0.4" d="M262.811 61.0181C262.811 61.0181 265.005 57.8429 261.52 56.9142C258.035 55.973 258.098 57.2029 255.39 56.9142C252.682 56.6256 251.617 58.7214 253.648 61.0181C255.678 63.3147 257.333 67.7198 259.163 65.3729C261.006 63.0261 260.643 61.244 262.811 61.0181Z" fill="#AEC3FF"/>
</g>
</g>
<path d="M277.528 84.1603V205.142C277.528 207.263 275.999 208.97 274.119 208.97H99.7593C97.879 208.97 96.3496 207.251 96.3496 205.142V84.1603C96.3496 82.0393 97.879 80.3325 99.7593 80.3325H274.119C275.999 80.32 277.528 82.0393 277.528 84.1603Z" fill="#F8F8F8"/>
<path d="M277.528 83.7336V92.87H96.3496V83.7336C96.3496 81.8511 97.879 80.32 99.7593 80.32H274.119C275.999 80.32 277.528 81.8511 277.528 83.7336Z" fill="#97A6B4"/>
<path d="M101.903 86.595C101.903 85.7165 102.617 85.0012 103.495 85.0012C104.372 85.0012 105.087 85.7165 105.087 86.595C105.087 87.4735 104.372 88.1889 103.495 88.1889C102.605 88.1889 101.903 87.4735 101.903 86.595Z" fill="#DFEBFD"/>
<path d="M108.146 86.595C108.146 85.7165 108.86 85.0012 109.738 85.0012C110.615 85.0012 111.33 85.7165 111.33 86.595C111.33 87.4735 110.615 88.1889 109.738 88.1889C108.86 88.1889 108.146 87.4735 108.146 86.595Z" fill="#DFEBFD"/>
<path d="M114.564 86.595C114.564 85.7165 115.279 85.0012 116.156 85.0012C117.034 85.0012 117.748 85.7165 117.748 86.595C117.748 87.4735 117.034 88.1889 116.156 88.1889C115.266 88.1889 114.564 87.4735 114.564 86.595Z" fill="#DFEBFD"/>
<path opacity="0.5" d="M212.944 171.307H193.84V190.434H212.944V171.307Z" fill="#EBF3FA"/>
<path d="M195.281 188.263L200.922 178.072L205.072 183.732L207.14 181.473L211.54 188.263H195.281Z" fill="#739AF0"/>
<path d="M203.605 176.604C203.605 175.8 204.257 175.135 205.072 175.135C205.874 175.135 206.538 175.788 206.538 176.604C206.538 177.407 205.886 178.072 205.072 178.072C204.269 178.072 203.605 177.419 203.605 176.604Z" fill="#739AF0"/>
<path opacity="0.5" d="M241.488 136.293H193.84V163.941H241.488V136.293Z" fill="#EBF3FA"/>
<path d="M212.28 143.032V157.201L223.035 150.123L212.28 143.032Z" fill="#739AF0"/>
<path d="M263.288 115.711C263.288 118.836 262.047 121.672 260.041 123.718C258.035 125.776 255.265 127.044 252.231 127.044H123.289C116.707 127.044 111.33 121.936 111.33 115.698C111.33 112.573 112.671 109.737 114.84 107.692C117.008 105.633 120.004 104.366 123.289 104.366H252.219C258.298 104.366 263.288 109.474 263.288 115.711Z" fill="#EBF3FA"/>
<path d="M263.288 115.711C263.288 118.836 262.047 121.672 260.041 123.718C258.035 125.776 255.265 127.044 252.231 127.044H228.902V104.366H252.219C258.298 104.366 263.288 109.474 263.288 115.711Z" fill="#175967"/>
<path d="M248.521 119.84C248.232 119.84 247.944 119.815 247.656 119.777C246.126 119.551 244.785 118.736 243.87 117.493C241.977 114.933 242.516 111.306 245.073 109.411C247.631 107.516 251.254 108.055 253.146 110.616C255.039 113.176 254.5 116.803 251.943 118.698C250.94 119.438 249.749 119.84 248.521 119.84ZM245.637 110.164C243.494 111.745 243.043 114.782 244.635 116.916C245.399 117.957 246.528 118.623 247.794 118.823C249.072 119.012 250.338 118.698 251.379 117.932C253.522 116.351 253.974 113.314 252.382 111.18C250.802 109.034 247.769 108.583 245.637 110.164Z" fill="white"/>
<path d="M244.514 117.592L243.947 116.825L237.609 121.521L238.176 122.288L244.514 117.592Z" fill="white"/>
<path d="M235.709 123.53C235.433 123.153 235.509 122.626 235.885 122.337L239.62 119.576C239.996 119.3 240.523 119.376 240.811 119.752C241.087 120.129 241.012 120.656 240.636 120.944L236.9 123.705C236.524 123.994 235.985 123.906 235.709 123.53Z" fill="white"/>
<path d="M149.451 100.074C149.213 100.35 149.175 100.664 149.301 101.002C149.526 101.617 150.253 102.308 151.118 102.998C151.231 103.086 151.319 103.161 151.407 103.236C151.432 103.261 151.457 103.274 151.469 103.299C151.482 103.312 151.507 103.324 151.519 103.349C152.322 104.09 152.021 104.253 153.45 105.746C155.08 107.453 156.208 107.478 156.521 107.328C156.797 107.19 156.245 106.299 155.631 105.282C155.606 105.232 155.568 105.182 155.543 105.131C155.468 104.993 155.38 104.855 155.305 104.73C154.591 103.512 154.779 102.935 154.942 101.128C155.08 99.647 157.236 92.8825 157.236 92.8825L154.102 92.3429C154.102 92.3429 153.162 97.7268 152.121 98.5551C151.57 98.9944 150.943 99.0069 150.416 99.3332C150.379 99.3583 150.341 99.3834 150.303 99.4085C150.015 99.5842 149.702 99.7976 149.451 100.074Z" fill="#FFB27D"/>
<path d="M149.451 100.074C149.213 100.35 149.175 100.664 149.301 101.002C149.576 101.617 150.291 102.308 151.118 102.985C151.231 103.073 151.319 103.161 151.407 103.236C151.432 103.261 151.457 103.274 151.469 103.299C151.482 103.312 151.507 103.324 151.519 103.349C152.322 104.09 152.021 104.253 153.45 105.746C155.08 107.453 156.208 107.478 156.521 107.328C156.797 107.19 156.245 106.299 155.631 105.282C155.318 105.169 153.838 104.567 152.723 103.136C151.77 101.931 151.131 100.387 150.491 99.4336C150.416 99.4211 150.379 99.4085 150.303 99.396C150.015 99.5842 149.702 99.7976 149.451 100.074Z" fill="#233862"/>
<path d="M174.685 98.1284C174.873 99.0948 176.252 98.9316 177.794 98.5551C179.336 98.1786 178.973 98.6304 181.154 98.3794C183.348 98.141 184.012 97.3253 184.075 96.999C184.137 96.7103 183.059 96.6099 181.893 96.4719C181.743 96.4593 181.605 96.4342 181.455 96.4216C180.151 96.2585 179.186 95.4051 177.995 94.7149C176.867 94.0623 175.187 91.3766 175.187 91.3766L172.191 91.615C172.191 91.615 173.77 94.0121 174.372 95.0537C174.735 95.6687 174.71 96.4719 174.66 97.0993C174.635 97.4382 174.61 97.7896 174.685 98.1284Z" fill="#FFB27D"/>
<path d="M177.794 98.5551C179.336 98.1786 178.973 98.6304 181.154 98.3794C183.348 98.141 184.012 97.3252 184.075 96.9989C184.137 96.7103 183.059 96.6099 181.893 96.4718L181.881 96.4969C181.881 96.4969 180.565 97.4256 178.747 97.4758C177.268 97.5135 175.688 97.0868 174.66 97.0993C174.635 97.4382 174.61 97.7896 174.685 98.1284C174.873 99.0948 176.252 98.9316 177.794 98.5551Z" fill="#233862"/>
<path d="M163.19 78.9144L160.382 86.4695L156.722 96.3338C156.722 96.3338 155.731 96.4342 154.779 96.1581C153.901 95.9071 152.898 95.2419 152.898 95.2419C152.898 95.2419 153.914 84.6497 155.819 78.563C156.308 77.0068 156.847 75.7392 157.449 75.0239C160.382 71.5475 163.19 78.9144 163.19 78.9144Z" fill="#104E5B"/>
<path d="M160.332 66.904C158.74 66.3895 154.565 66.8915 150.053 67.7072C148.799 67.9331 147.545 67.3558 146.894 66.2765L135.511 65.3855C135.511 65.3855 131.75 73.7187 133.806 79.0273C134.107 79.8054 134.772 80.2949 135.799 80.3074C135.799 80.3074 142.669 80.32 144.875 80.32C150.529 80.32 156.847 76.4295 157.662 76.2663C159.003 76.0028 159.53 78.6759 160.871 81.4871C162.212 84.2983 173.432 93.9367 173.432 93.9367C173.432 93.9367 175.162 93.9493 175.876 93.6857C176.641 93.3971 176.929 93.0206 176.929 93.0206C176.929 93.0206 164.481 68.2469 160.332 66.904Z" fill="#175967"/>
<path d="M145.69 32.8433C144.85 32.3413 144.023 32.266 143.522 32.2786C143.171 32.2911 142.82 32.266 142.469 32.2158C138.131 31.5758 135.511 37.8884 135.361 39.796C135.072 43.2975 133.23 43.8371 130.622 46.0208C125.395 50.4133 126.924 55.5337 129.782 57.4288C131.5 58.5708 134.521 57.4288 134.521 57.4288C134.558 57.4539 142.782 52.8355 146.831 50.6016C152.898 49.7356 148.135 34.2991 145.69 32.8433Z" fill="#233862"/>
<path d="M143.434 48.694C143.446 48.7065 141.441 49.3968 140.099 48.7944C138.833 48.2296 137.88 46.1463 137.893 46.1463C138.47 46.1212 139.096 45.6192 139.585 42.306L139.836 42.3939L143.96 43.8748C143.96 43.8748 143.659 45.1925 143.471 46.4601C143.296 47.5394 143.208 48.5434 143.434 48.694Z" fill="#FFB27D"/>
<path d="M143.948 43.8999C143.948 43.8999 143.785 44.6152 143.547 45.9455C141.177 45.5188 140.162 43.6991 139.836 42.4064L143.948 43.8999Z" fill="#ED975D"/>
<path d="M144.562 45.2051C144.562 45.2051 138.921 44.4395 139.448 40.9381C139.974 37.4366 139.598 34.9768 143.221 35.3031C146.844 35.642 147.332 37.0852 147.445 38.29C147.558 39.5199 146.041 45.318 144.562 45.2051Z" fill="#FFB27D"/>
<path d="M147.245 36.3824C147.245 36.3824 143.634 39.4948 141.177 39.7458C138.72 39.9968 137.793 39.2062 137.793 39.2062C137.793 39.2062 139.234 38.0014 140.112 36.0687C140.363 35.4914 140.914 35.1023 141.541 35.0521C143.296 34.889 146.618 34.8262 147.245 36.3824Z" fill="#233862"/>
<path d="M144.988 36.1063C144.988 36.1063 146.192 37.2735 146.58 38.1394C146.944 38.9803 147.057 40.9758 146.768 41.7664C146.768 41.7664 148.649 38.1018 147.583 36.3322C146.455 34.4497 144.988 36.1063 144.988 36.1063Z" fill="#233862"/>
<path d="M148.172 57.0146C147.997 68.4351 148.122 66.0506 146.869 67.1299C146.568 67.3935 145.728 67.5441 144.612 67.6194C141.115 67.8453 134.96 67.268 134.734 66.6279C133.932 64.394 134.496 63.6912 133.831 60.2651C133.756 59.9011 133.668 59.4995 133.568 59.0728C133.004 56.7134 132.465 55.9102 134.458 52.1327C136.263 48.7065 138.144 45.9205 138.307 46.0209C143.07 48.8571 143.459 46.4726 143.459 46.4726C143.459 46.4726 148.26 51.4424 148.172 57.0146Z" fill="#AFCDFB"/>
<path d="M160.382 86.4695L156.722 96.3338C156.722 96.3338 155.731 96.4342 154.779 96.1581C153.901 95.9071 152.898 95.2419 152.898 95.2419C152.898 95.2419 153.914 84.6497 155.819 78.563L160.382 86.4695Z" fill="#175967"/>
<path d="M143.459 46.4726C143.459 46.4726 148.36 47.3009 148.937 49.4219C149.513 51.5303 151.406 64.3689 151.406 64.3689C151.406 64.3689 150.027 65.7243 148.874 64.5697C147.721 63.4151 145.251 52.5719 145.251 52.5719L143.459 46.4726Z" fill="#AFCDFB"/>
<path d="M144.612 67.6194C141.115 67.8453 134.96 67.268 134.734 66.6279C133.932 64.394 134.496 63.6912 133.831 60.2651L135.524 55.5086C135.524 55.5086 135.248 60.8047 136.802 62.1978C138.357 63.5908 143.196 64.8835 143.948 66.0506C144.311 66.6154 144.549 67.1676 144.612 67.6194Z" fill="#95B3EF"/>
<path d="M140.613 65.398C140.613 65.398 144.061 64.6325 144.625 64.9337C145.176 65.2349 146.543 66.3518 146.718 66.7409C146.894 67.1299 145.477 66.4397 145.026 66.3267C144.725 66.2514 143.948 66.515 143.559 66.653C141.93 67.1927 140.927 66.9166 140.927 66.9166L140.613 65.398Z" fill="#FFB27D"/>
<path d="M138.307 46.0208C138.307 46.0208 133.668 46.3095 132.064 48.5434C129.807 51.6934 125.32 65.1345 127.889 66.9291C130.785 68.9497 141.052 67.4562 141.052 67.4562C141.052 67.4562 141.39 65.8624 140.914 65.0843C140.438 64.3062 132.716 63.0637 132.352 62.6998C131.989 62.3358 136.815 55.7345 136.815 54.6678C136.815 53.601 138.307 46.0208 138.307 46.0208Z" fill="#AFCDFB"/>
<path d="M144.788 65.8875C144.788 65.8875 145.515 66.8162 145.753 66.9291C145.991 67.0421 146.141 67.017 146.141 67.017L145.653 66.1385L144.788 65.8875Z" fill="#FFB27D"/>
<path d="M144.625 64.9337L146.731 65.9628C146.731 65.9628 146.643 66.1134 146.38 66.1009C146.117 66.0883 145.465 65.8499 145.465 65.8499L144.625 64.9337Z" fill="#FFB27D"/>
<path d="M162.576 67.3433L140.613 67.3307V67.8202H162.375L162.576 67.3433Z" fill="#233862"/>
<path d="M145.74 67.8202H162.375L167.389 55.3706H150.78L145.74 67.8202Z" fill="#233862"/>
<path d="M158.176 61.5954C158.301 61.1561 158.05 60.8047 157.612 60.8047C157.173 60.8047 156.722 61.1561 156.596 61.5954C156.471 62.0347 156.722 62.3861 157.16 62.3861C157.599 62.3861 158.05 62.0347 158.176 61.5954Z" fill="white"/>
<path d="M146.818 141.627H116.783C116.156 141.627 115.655 141.125 115.655 140.497V140.02C115.655 139.393 116.156 138.891 116.783 138.891H146.818C147.445 138.891 147.947 139.393 147.947 140.02V140.497C147.947 141.112 147.445 141.627 146.818 141.627Z" fill="#F99746"/>
<path d="M131.412 151.052H116.595C116.081 151.052 115.655 150.638 115.655 150.111C115.655 149.596 116.068 149.169 116.595 149.169H131.412C131.926 149.169 132.352 149.583 132.352 150.111C132.34 150.638 131.926 151.052 131.412 151.052Z" fill="#739AF0"/>
<path d="M142.757 147.124H116.52C116.043 147.124 115.655 146.735 115.655 146.258V146.132C115.655 145.655 116.043 145.266 116.52 145.266H142.744C143.221 145.266 143.609 145.655 143.609 146.132V146.258C143.622 146.735 143.233 147.124 142.757 147.124Z" fill="#739AF0"/>
<path d="M171.451 147.124H147.019C146.555 147.124 146.179 146.747 146.179 146.283V146.095C146.179 145.63 146.555 145.254 147.019 145.254H171.451C171.915 145.254 172.291 145.63 172.291 146.095V146.283C172.291 146.747 171.915 147.124 171.451 147.124Z" fill="#739AF0"/>
<path d="M149.889 151.052H135.072C134.558 151.052 134.132 150.638 134.132 150.111C134.132 149.596 134.546 149.169 135.072 149.169H149.889C150.403 149.169 150.83 149.583 150.83 150.111C150.817 150.638 150.403 151.052 149.889 151.052Z" fill="#739AF0"/>
<path d="M183.385 141.627H153.349C152.723 141.627 152.221 141.125 152.221 140.497V140.02C152.221 139.393 152.723 138.891 153.349 138.891H183.385C184.012 138.891 184.513 139.393 184.513 140.02V140.497C184.513 141.112 184.012 141.627 183.385 141.627Z" fill="#F99746"/>
<path d="M146.818 190.735H116.783C116.156 190.735 115.655 190.233 115.655 189.605V189.129C115.655 188.501 116.156 187.999 116.783 187.999H146.818C147.445 187.999 147.947 188.501 147.947 189.129V189.605C147.947 190.233 147.445 190.735 146.818 190.735Z" fill="#F99746"/>
<path d="M131.412 200.173H116.595C116.081 200.173 115.655 199.758 115.655 199.231C115.655 198.717 116.068 198.29 116.595 198.29H131.412C131.926 198.29 132.352 198.704 132.352 199.231C132.34 199.746 131.926 200.173 131.412 200.173Z" fill="#739AF0"/>
<path d="M142.757 196.244H116.52C116.043 196.244 115.655 195.855 115.655 195.378V195.253C115.655 194.776 116.043 194.387 116.52 194.387H142.744C143.221 194.387 143.609 194.776 143.609 195.253V195.378C143.622 195.855 143.233 196.244 142.757 196.244Z" fill="#739AF0"/>
<path d="M171.451 196.244H147.019C146.555 196.244 146.179 195.868 146.179 195.403V195.215C146.179 194.751 146.555 194.374 147.019 194.374H171.451C171.915 194.374 172.291 194.751 172.291 195.215V195.403C172.291 195.868 171.915 196.244 171.451 196.244Z" fill="#739AF0"/>
<path d="M149.889 200.173H135.072C134.558 200.173 134.132 199.758 134.132 199.231C134.132 198.717 134.546 198.29 135.072 198.29H149.889C150.403 198.29 150.83 198.704 150.83 199.231C150.817 199.746 150.403 200.173 149.889 200.173Z" fill="#739AF0"/>
<path d="M183.385 190.735H153.349C152.723 190.735 152.221 190.233 152.221 189.605V189.129C152.221 188.501 152.723 187.999 153.349 187.999H183.385C184.012 187.999 184.513 188.501 184.513 189.129V189.605C184.513 190.233 184.012 190.735 183.385 190.735Z" fill="#F99746"/>
<path d="M146.818 166.175H116.783C116.156 166.175 115.655 165.673 115.655 165.045V164.568C115.655 163.941 116.156 163.439 116.783 163.439H146.818C147.445 163.439 147.947 163.941 147.947 164.568V165.045C147.947 165.673 147.445 166.175 146.818 166.175Z" fill="#F99746"/>
<path d="M131.412 175.612H116.595C116.081 175.612 115.655 175.198 115.655 174.671C115.655 174.156 116.068 173.73 116.595 173.73H131.412C131.926 173.73 132.352 174.144 132.352 174.671C132.34 175.185 131.926 175.612 131.412 175.612Z" fill="#739AF0"/>
<path d="M142.757 171.684H116.52C116.043 171.684 115.655 171.295 115.655 170.818V170.693C115.655 170.216 116.043 169.827 116.52 169.827H142.744C143.221 169.827 143.609 170.216 143.609 170.693V170.818C143.622 171.295 143.233 171.684 142.757 171.684Z" fill="#739AF0"/>
<path d="M171.451 171.684H147.019C146.555 171.684 146.179 171.308 146.179 170.843V170.655C146.179 170.191 146.555 169.814 147.019 169.814H171.451C171.915 169.814 172.291 170.191 172.291 170.655V170.843C172.291 171.308 171.915 171.684 171.451 171.684Z" fill="#739AF0"/>
<path d="M149.889 175.612H135.072C134.558 175.612 134.132 175.198 134.132 174.671C134.132 174.156 134.546 173.73 135.072 173.73H149.889C150.403 173.73 150.83 174.144 150.83 174.671C150.817 175.185 150.403 175.612 149.889 175.612Z" fill="#739AF0"/>
<path d="M183.385 166.175H153.349C152.723 166.175 152.221 165.673 152.221 165.045V164.568C152.221 163.941 152.723 163.439 153.349 163.439H183.385C184.012 163.439 184.513 163.941 184.513 164.568V165.045C184.513 165.673 184.012 166.175 183.385 166.175Z" fill="#F99746"/>
<path d="M99.0447 152.972C99.0447 152.972 99.3831 152.206 99.6088 151.842C99.8219 151.478 100.762 150.424 100.925 150.663C101.088 150.901 101.727 152.52 101.389 152.972C101.05 153.424 101.414 154.214 99.7216 154.679L99.0447 152.972Z" fill="#FFB27D"/>
<path d="M80.3162 148.153C80.3162 148.153 88.9407 155.369 92.3128 154.691C94.9453 154.164 98.9818 152.784 98.9818 152.784L99.7841 154.854C99.7841 154.854 96.1613 159.774 92.3881 159.799C86.4837 159.849 82.1213 157.239 82.1213 157.239L80.3162 148.153Z" fill="#95B3EF"/>
<path d="M65.1731 224.218C65.1731 224.218 65.4238 228.259 66.201 228.322C66.3013 228.335 70.1623 228.335 70.1623 228.335L75.0888 228.31C75.0888 228.31 75.0512 227.117 73.6096 226.866C72.168 226.615 69.7612 225.599 68.8837 223.691C67.9936 221.683 65.1731 224.218 65.1731 224.218Z" fill="black"/>
<path d="M64.8973 224.494C64.8973 224.494 66.4016 224.996 67.5674 224.996C68.8711 224.996 70.062 224.645 70.062 224.645C70.062 224.645 70.3504 221.909 71.8922 215.898C72.7071 212.748 73.8729 208.694 75.5276 203.649C80.1031 189.718 81.4946 181.573 81.62 180.808C81.6325 180.77 81.6325 180.745 81.6325 180.745L81.62 180.733L67.5674 174.558C67.5674 174.558 69.3099 193.747 67.0911 201.126C66.7777 202.155 66.5144 203.36 66.2888 204.653C64.8597 212.647 64.8973 224.494 64.8973 224.494Z" fill="#175967"/>
<path d="M71.8921 215.898C72.707 212.748 73.8728 208.694 75.5275 203.649C80.103 189.718 81.4945 181.573 81.6199 180.808C81.6199 180.783 81.6199 180.758 81.6199 180.745L67.5673 174.57C67.5673 174.57 69.3098 193.759 67.091 201.139C66.7525 202.143 71.8921 215.898 71.8921 215.898Z" fill="#104E5B"/>
<path d="M76.1543 224.218C76.1543 224.218 76.405 228.259 77.1822 228.322C77.2825 228.335 81.1435 228.335 81.1435 228.335L86.07 228.31C86.07 228.31 86.0324 227.117 84.5908 226.866C83.1492 226.615 80.7424 225.599 79.8649 223.691C78.9623 221.683 76.1543 224.218 76.1543 224.218Z" fill="black"/>
<path d="M84.1271 175.01C84.1271 175.01 84.3151 187.447 82.159 202.72C80.0154 217.993 80.7424 224.469 80.7424 224.469C80.7424 224.469 79.2632 224.946 78.674 224.996C77.1572 225.122 75.6028 224.645 75.6028 224.645C75.6028 224.645 72.5315 209.372 73.409 201.729C74.2865 194.086 69.197 175.499 69.197 175.499L84.1271 175.01Z" fill="#175967"/>
<path d="M74.1611 145.894L76.9065 147.701L79.4011 146.998C79.8524 146.346 79.9777 145.091 79.9902 143.999C80.0028 142.919 79.89 142.003 79.89 142.003L76.1919 140.372L74.813 139.757C74.813 139.782 74.9258 140.886 74.9383 141.049C75.1891 143.936 74.1611 145.894 74.1611 145.894Z" fill="#FFB27D"/>
<path d="M84.1898 178.461C80.7801 181.762 67.8558 181.209 67.0535 177.57C66.2637 173.93 67.9184 146.609 73.7601 144.89C74.9761 144.538 81.4445 146.622 81.4445 146.622C81.4445 146.622 82.4599 149.282 83.1243 152.671C83.2496 153.336 83.6257 160.314 83.914 166.84C84.0519 169.889 84.1522 172.851 84.2149 175.022C84.265 177.055 84.265 178.386 84.1898 178.461Z" fill="#AFCDFB"/>
<path d="M75.2017 141.1C75.9538 142.367 78.5863 143.484 79.9778 143.999C79.9904 142.919 79.8775 142.003 79.8775 142.003L76.1795 140.372C75.3647 140.347 74.8758 140.535 75.2017 141.1Z" fill="#FCA56B"/>
<path d="M81.2815 141.765C81.2815 141.765 75.3145 143.622 74.2113 139.895C73.1082 136.155 71.6039 133.883 75.3646 132.541C79.1253 131.198 80.2911 132.403 80.9555 133.557C81.6325 134.712 82.8108 141.187 81.2815 141.765Z" fill="#FFB27D"/>
<path d="M80.7299 133.193C80.7299 133.193 80.3538 137.535 79.4513 137.347C78.5487 137.159 77.5584 136.757 77.6963 138.063C77.8216 139.368 76.8188 141.614 75.5276 141.614C72.7447 141.602 69.7361 134.473 70.4883 133.118C72.682 129.215 83.9015 128.424 80.7299 133.193Z" fill="#163560"/>
<path d="M79.8524 144.99C79.7771 144.952 75.4147 142.995 74.9008 143.17C74.3868 143.334 73.76 144.902 73.76 144.902L81.4444 146.647C81.4319 146.634 80.8301 145.404 79.8524 144.99Z" fill="#95B3EF"/>
<path d="M107.017 166.149L82.5602 189.204C82.0839 189.656 81.4822 189.794 81.2189 189.518L80.3915 188.639C80.1283 188.363 80.3163 187.773 80.7927 187.321L105.25 164.267C105.726 163.815 106.328 163.677 106.591 163.953L107.419 164.832C107.669 165.108 107.494 165.698 107.017 166.149Z" fill="#1F4D84"/>
<path d="M93.2908 179.088L82.5602 189.204C82.0839 189.656 81.4822 189.794 81.2189 189.517L80.3915 188.639C80.1283 188.363 80.3163 187.773 80.7927 187.321L91.5233 177.206L93.2908 179.088Z" fill="#739AF0"/>
<path d="M101.389 157.44C102.329 160.54 104.072 163.439 106.591 165.823C114.301 173.09 126.435 172.713 133.694 164.995C140.851 157.377 140.588 145.454 133.167 138.163C133.067 138.063 132.966 137.962 132.866 137.874C125.157 130.608 113.022 130.984 105.776 138.703C100.888 143.886 99.4584 151.077 101.389 157.44ZM106.867 139.732C111.092 135.239 117.109 133.444 122.75 134.423C126.047 134.988 129.206 136.506 131.826 138.966C138.933 145.655 139.272 156.837 132.59 163.953C130.133 166.576 127.062 168.27 123.815 169.036C118.237 170.354 112.12 168.936 107.632 164.706C100.524 158.03 100.186 146.848 106.867 139.732Z" fill="#1F4D84"/>
<g opacity="0.5">
<path opacity="0.5" d="M132.59 163.953C130.133 166.576 127.062 168.27 123.815 169.036C118.237 170.354 112.119 168.935 107.632 164.706C100.524 158.017 100.185 146.835 106.867 139.719C111.092 135.226 117.109 133.432 122.75 134.41C126.047 134.975 129.206 136.494 131.826 138.954C138.933 145.655 139.272 156.85 132.59 163.953Z" fill="#B3CFF9"/>
</g>
<path d="M84.2023 175.035C70.7264 165.422 71.8421 152.595 71.8421 152.595C76.7686 155.382 81.6576 161.531 83.9014 166.865C84.0393 169.902 84.1522 172.864 84.2023 175.035Z" fill="#95B3EF"/>
<path d="M97.5028 170.655C98.4555 170.429 99.0948 169.714 99.2201 169.588C99.2201 169.588 99.6213 169.613 99.1575 170.479C99.1199 170.554 99.0321 170.743 98.9694 170.868C98.9444 170.918 98.982 170.981 99.0446 170.994C99.5962 171.031 100.148 170.818 101.201 171.044C101.351 171.069 101.389 171.42 101.389 171.571C101.376 171.822 101.401 172.111 101.1 172.487C100.925 172.713 100.461 172.952 99.3956 173.378C98.9945 173.541 97.8412 173.416 96.7632 173.052L95.8982 172.65L96.1614 171.044L96.3745 171.094C96.7255 171.157 97.1518 170.743 97.5028 170.655Z" fill="#FFB27D"/>
<path d="M76.0291 146.634C76.0291 146.634 63.9196 148.943 79.5893 166.501C82.0964 169.312 95.635 172.964 95.635 172.964C95.635 172.964 97.0139 171.797 96.3119 170.843C96.3119 170.843 86.9853 164.066 84.942 162.987C84.0144 162.497 81.3568 152.169 79.8525 149.684C78.3607 147.186 76.0291 146.634 76.0291 146.634Z" fill="#AFCDFB"/>
<path d="M99.3706 153.185C99.3706 153.185 99.7718 152.432 99.847 152.031C99.9222 151.629 100.424 150.462 100.624 150.261C100.712 150.173 100.975 150.286 101.013 150.638C101.025 150.788 100.95 151.077 100.812 151.403C100.599 151.943 100.637 152.683 100.562 152.922C100.373 153.537 99.3706 153.185 99.3706 153.185Z" fill="#FFB27D"/>
<path d="M261.269 130.043L254.425 131.637L251.028 137.812L248.445 123.743L261.269 130.043Z" fill="#233862"/>
<path d="M254.038 130.281L253.039 131.039L257.415 136.82L258.414 136.062L254.038 130.281Z" fill="#233862"/>
<path d="M238.667 195.09C238.667 195.09 241.501 191.764 238.83 189.656C238.83 189.656 236.875 188.476 235.283 188.576C235.283 188.576 237.552 192.354 236.825 192.73C236.098 193.107 234.606 188.338 234.606 188.338C234.606 188.338 230.168 187.924 228.739 188.614C228.739 188.614 232.538 191.714 231.748 191.902C230.945 192.09 226.846 189.053 226.846 189.053C226.846 189.053 222.722 189.769 222.948 192.291C223.173 194.814 224.602 195.592 225.229 195.516C225.856 195.441 229.504 194.036 229.592 194.55C229.679 195.065 227.473 196.746 225.931 196.834C225.931 196.834 228.852 200.034 230.783 199.106C232.713 198.177 232.876 196.696 234.079 196.144C235.283 195.592 236.311 195.592 235.822 196.156C235.32 196.721 233.139 197.273 232.462 198.503C231.773 199.733 231.159 200.549 233.164 200.248C235.17 199.934 238.417 198.466 238.555 196.784C238.667 195.09 238.667 195.09 238.667 195.09Z" fill="#82B378"/>
<path d="M224.966 192.354C224.966 192.354 236.185 191.889 238.667 195.09C238.667 195.09 239.219 196.734 240.911 198.215L241.174 198.93C241.174 198.93 239.219 196.884 238.529 196.759C238.529 196.771 239.608 192.781 224.966 192.354Z" fill="#82B378"/>
<path d="M240.911 198.215C240.911 198.215 243.331 199.984 243.506 203.172L243.067 203.21C243.067 203.21 242.29 199.922 240.899 198.641C239.495 197.361 240.911 198.215 240.911 198.215Z" fill="#82B378"/>
<path d="M253.71 186.305C253.71 186.305 249.172 183.782 251.278 180.331C251.278 180.331 252.958 178.21 254.763 177.658C254.763 177.658 253.811 182.791 254.776 182.916C255.741 183.042 255.415 177.118 255.415 177.118C255.415 177.118 260.179 174.809 262.046 174.985C262.046 174.985 259.101 180.005 260.066 179.879C261.031 179.754 264.328 174.671 264.328 174.671C264.328 174.671 269.217 173.755 270.007 176.641C270.796 179.528 269.543 180.996 268.816 181.172C268.089 181.36 263.45 181.31 263.563 181.912C263.689 182.515 266.823 183.469 268.578 182.929C268.578 182.929 266.66 187.71 264.127 187.472C261.595 187.234 260.805 185.665 259.238 185.552C257.672 185.439 256.518 185.866 257.308 186.28C258.098 186.694 260.743 186.405 262.021 187.485C263.288 188.564 264.315 189.216 261.971 189.706C259.615 190.195 255.39 189.907 254.55 188.099C253.71 186.305 253.71 186.305 253.71 186.305Z" fill="#A8D29F"/>
<path d="M267.8 177.557C267.8 177.557 255.139 181.712 253.71 186.305C253.71 186.305 253.773 188.363 252.519 190.722V191.626C252.519 191.626 253.836 188.539 254.563 188.112C254.563 188.112 251.717 184.134 267.8 177.557Z" fill="#82B378"/>
<path d="M252.519 190.71C252.519 190.71 250.576 193.684 251.705 197.299L252.206 197.161C252.206 197.161 251.705 193.182 252.72 191.174C253.735 189.179 252.519 190.71 252.519 190.71Z" fill="#82B378"/>
<path d="M246.502 182.828C246.502 182.828 252.457 179.465 249.661 174.934C249.661 174.934 247.43 172.148 245.035 171.446C245.035 171.446 246.327 178.21 245.061 178.373C243.794 178.536 244.158 170.73 244.158 170.73C244.158 170.73 237.865 167.718 235.396 167.969C235.396 167.969 239.319 174.571 238.041 174.407C236.762 174.257 232.374 167.58 232.374 167.58C232.374 167.58 225.931 166.4 224.903 170.228C223.875 174.056 225.555 175.964 226.508 176.189C227.46 176.428 233.59 176.328 233.427 177.118C233.277 177.909 229.14 179.201 226.834 178.499C226.834 178.499 229.403 184.786 232.738 184.447C236.072 184.121 237.1 182.05 239.169 181.875C241.237 181.711 242.754 182.264 241.713 182.816C240.673 183.368 237.176 183.017 235.521 184.435C233.854 185.866 232.5 186.744 235.609 187.372C238.717 187.999 244.283 187.585 245.386 185.188C246.502 182.828 246.502 182.828 246.502 182.828Z" fill="#A8D29F"/>
<path d="M227.849 171.42C227.849 171.42 244.572 176.779 246.502 182.828C246.502 182.828 246.427 185.539 248.107 188.639V189.831C248.107 189.831 246.339 185.778 245.387 185.225C245.399 185.213 249.11 179.954 227.849 171.42Z" fill="#82B378"/>
<path d="M248.107 188.626C248.107 188.626 250.689 192.529 249.248 197.311L248.583 197.135C248.583 197.135 249.21 191.877 247.856 189.241C246.502 186.606 248.107 188.626 248.107 188.626Z" fill="#82B378"/>
<path d="M294.263 228.623H233.127C224.602 218.859 226.859 205.669 238.166 194.55C239.583 193.157 242.315 192.166 245.261 191.463C250.689 190.17 256.832 189.881 256.882 189.856C256.894 189.844 260.129 187.221 262.072 184.874C268.114 177.545 273.254 178.185 273.254 178.185C279.409 176.98 284.661 176.629 288.56 178.8C292.17 180.808 294.614 185 295.529 192.68C295.705 194.136 295.818 195.717 295.88 197.424C296.106 203.661 297.335 209.209 298.062 213.902C299.115 220.692 299.867 225.875 294.263 228.623Z" fill="#175967"/>
<path d="M285.514 186.631C281.778 188.664 281.364 195.378 275.51 197.11C269.656 198.842 259.728 198.692 254.099 204.803C248.671 210.702 242.679 195.692 245.249 191.475C250.677 190.183 256.819 189.894 256.869 189.869C256.882 189.856 260.116 187.233 262.059 184.887C268.101 177.557 273.241 178.197 273.241 178.197C279.396 176.993 284.649 176.641 288.547 178.812C292.859 183.23 289.249 184.585 285.514 186.631Z" fill="#104E5B"/>
<path d="M245.061 215.647C245.061 215.647 246.139 218.508 245.913 219.562C245.687 220.629 246.063 222.675 245.625 223.603C245.198 224.519 244.421 225.862 245.173 226.201C245.462 226.327 248.734 223.766 248.922 223.013C249.11 222.26 249.248 220.039 249.874 218.834C250.501 217.63 249.975 216.651 249.059 216.211C248.144 215.772 246.878 213.35 246.878 213.35L245.061 215.647Z" fill="#F9DDBF"/>
<path d="M262.573 188.551C262.573 188.551 244.684 187.447 242.378 189.819C239.946 192.316 243.907 216.939 243.907 216.939C243.907 216.939 248.758 217.077 249.135 215.797C249.135 215.797 248.219 203.875 248.984 201.817C249.749 199.758 249.26 196.897 249.26 196.897C249.26 196.897 258.749 198.315 261.758 197.587C264.779 196.872 262.573 188.551 262.573 188.551Z" fill="#1D3F83"/>
<path d="M266.91 175.411C266.91 175.424 264.278 181.573 262.987 182.226C261.695 182.879 257.045 188.237 256.042 188.15C255.039 188.062 257.07 189.241 257.07 189.241C257.07 189.241 265.343 185.2 265.82 184.962C266.296 184.723 268.778 180.62 269.129 178.536C269.468 176.453 266.91 175.411 266.91 175.411Z" fill="#FFB27D"/>
<path d="M241.764 220.366C241.764 220.366 240.748 223.239 239.883 223.917C239.031 224.582 237.99 226.402 237.063 226.816C236.135 227.243 234.693 227.77 235.044 228.51C235.182 228.787 239.332 228.95 239.958 228.498C240.585 228.046 242.127 226.44 243.381 225.913C244.634 225.398 244.86 224.306 244.446 223.39C244.033 222.461 244.622 219.788 244.622 219.788L241.764 220.366Z" fill="#F9DDBF"/>
<path d="M272.288 172.688C271.912 172.249 281.59 173.341 282.881 178.285C282.881 178.285 290.327 172.412 283.495 167.467C281.138 165.76 280.9 163.928 280.549 162.246C280.211 160.577 277.854 155.771 273.755 158.155C273.755 158.155 271.887 158.168 270.709 159.184C268.026 161.531 265.093 176.353 272.288 172.688Z" fill="#163560"/>
<path d="M270.408 189.43C270.408 189.43 250.965 191.413 249.247 193.408C247.543 195.391 240.836 221.244 240.836 221.244C240.836 221.244 242.817 222.348 244.622 221.319C244.622 221.319 249.761 212.547 252.043 209.798C254.324 207.05 255.164 198.554 255.54 198.466C255.916 198.378 268.101 200.16 272.301 196.935C276.5 193.709 270.408 189.43 270.408 189.43Z" fill="#2A4E96"/>
<path d="M281.226 171.759C281.226 171.759 276.588 169.689 270.709 170.642C269.505 170.831 268.427 171.232 267.562 172.65C266.346 174.658 265.782 175.725 265.782 175.725C265.782 175.725 265.895 176.654 267.562 177.394C267.111 179.051 267.976 181.95 267.186 183.079C266.396 184.209 261.445 186.995 261.207 188.551C260.755 191.4 269.656 196.571 272.313 196.018C279.935 194.412 285.112 173.943 281.226 171.759Z" fill="#F9DDBF"/>
<path d="M278.606 165.886C278.606 165.886 279.521 164.079 279.647 162.61C279.734 161.556 278.844 157.753 275.033 158.682C275.033 158.682 273.918 158.896 272.94 159.711C272.15 160.351 271.06 161.694 272.727 164.92L273.191 166.024L278.606 165.886Z" fill="#163560"/>
<path d="M273.379 171.96C272.99 172.362 273.141 173.717 274.946 173.617C276.124 173.554 278.669 172.086 278.431 171.069C278.318 170.592 277.403 169.35 277.19 166.488L276.977 166.551L273.366 167.568C273.366 167.568 273.542 168.722 273.629 169.802C273.705 170.73 273.542 171.797 273.379 171.96Z" fill="#FFB27D"/>
<path d="M273.366 167.568C273.366 167.568 273.542 168.722 273.629 169.802C275.673 169.576 276.613 167.618 276.977 166.551L273.366 167.568Z" fill="#F4A269"/>
<path d="M273.291 169.249C273.291 169.249 278.017 168.057 277.227 165.12C276.438 162.184 276.525 160.05 273.467 160.69C270.42 161.33 270.132 162.61 270.157 163.652C270.195 164.694 272.05 169.475 273.291 169.249Z" fill="#FFB27D"/>
<path d="M271.31 161.192C271.31 161.192 272.902 164.217 275.898 164.543C277.653 164.731 278.13 165.886 278.13 165.886C278.13 165.886 277.603 162.585 276.726 160.565C276.726 160.565 271.849 159.297 271.31 161.192Z" fill="#163560"/>
<path d="M271.849 161.594C271.849 161.594 270.809 162.648 270.496 163.401C270.019 164.505 270.947 166.827 271.323 167.329C271.323 167.329 269.117 163.589 269.856 161.97C270.646 160.264 271.849 161.594 271.849 161.594Z" fill="#163560"/>
<path d="M257.446 188.852C257.446 188.852 256.506 189.856 256.393 189.907C255.766 190.195 254.989 190.032 254.6 190.12C254.224 190.22 254.287 189.982 254.563 189.781C254.838 189.593 255.528 189.668 255.252 189.593C254.976 189.518 253.447 189.241 252.87 189.392C251.968 189.631 251.253 189.354 251.191 189.254C251.128 189.166 253.259 188.124 253.873 188.15C254.487 188.187 256.23 188.099 256.23 188.099L257.446 188.852Z" fill="#FFB27D"/>
<path d="M282.831 173.592C282.831 173.592 288.697 186.844 287.068 188.79C285.451 190.722 274.168 188.375 274.168 188.375L274.519 187.146C274.519 187.146 282.818 186.631 283.407 186.468C284.26 186.229 279.208 176.93 279.208 176.93L282.831 173.592Z" fill="#FFB27D"/>
<path d="M280.65 171.533C280.787 171.533 282.542 172.111 283.808 174.608C285.05 177.055 285.501 178.248 285.501 178.248C285.501 178.248 280.023 182.502 277.842 180.933C275.635 179.377 278.631 171.483 280.65 171.533Z" fill="#F9DDBF"/>
<path d="M275.485 187.095C275.485 187.095 274.544 186.48 274.156 186.154C273.78 185.815 271.561 185.552 271.574 185.765C271.574 185.991 272.865 186.292 273.003 186.518C273.141 186.744 273.93 187.66 274.595 187.66C275.259 187.66 275.485 187.095 275.485 187.095Z" fill="#FFB27D"/>
<path d="M272.902 189.078L270.37 188.714C269.994 188.664 269.605 188.35 269.518 188.012L268.126 183.067C268.026 182.728 268.264 182.502 268.64 182.552L271.172 182.916C271.548 182.966 271.937 183.28 272.025 183.619L273.416 188.564C273.517 188.903 273.278 189.141 272.902 189.078Z" fill="#1F4A91"/>
<path d="M272.376 189.003L269.844 188.639C269.468 188.589 269.079 188.275 268.991 187.936L267.6 182.992C267.499 182.653 267.738 182.427 268.114 182.477L270.646 182.841C271.022 182.891 271.411 183.205 271.498 183.544L272.89 188.488C272.99 188.827 272.752 189.066 272.376 189.003Z" fill="#233862"/>
<path d="M268.026 183.117C267.988 182.979 268.076 182.879 268.239 182.904C268.402 182.929 268.553 183.054 268.59 183.192C268.628 183.33 268.54 183.431 268.377 183.406C268.227 183.393 268.064 183.255 268.026 183.117Z" fill="#1F4A91"/>
<path d="M274.169 188.376C274.169 188.376 272.464 188.401 272.025 188.3C271.599 188.2 270.496 186.832 270.796 186.493C270.984 186.28 272 186.669 272.489 186.656C272.978 186.656 274.244 185.953 275.109 187.397C275.196 187.572 274.169 188.376 274.169 188.376Z" fill="#FFB27D"/>
<path d="M281.514 191.638C281.514 191.638 279.672 193.37 271.962 193.609C264.253 193.86 254.199 202.381 254.111 204.791C254.024 207.201 269.631 210.853 269.881 210.514C270.132 210.175 279.785 201.854 279.785 201.854L281.514 191.638Z" fill="#175967"/>
<path d="M298.062 213.89C289.487 203.172 271.862 217.78 267.312 217.366C263.125 216.99 275.485 202.331 290.816 200.16C297.021 199.281 295.53 192.868 295.53 192.668C295.705 194.123 295.818 195.705 295.881 197.412C296.106 203.649 297.335 209.196 298.062 213.89Z" fill="#104E5B"/>
<path d="M199.681 66.3142L216.379 69.778L205.673 61.4448L204.946 63.8544L200.81 64.3438L199.681 66.3142Z" fill="#95B3EF"/>
<path d="M216.379 69.778L202.803 61.6581L189.101 60.1145L216.379 69.778Z" fill="#F9DDBF"/>
<path d="M205.674 61.4448L216.379 69.778L208.469 57.3033L205.674 61.4448Z" fill="#F9DDBF"/>
<path d="M94.7198 113.377L78.0222 116.841L88.7277 108.507L89.4423 110.917L93.5916 111.406L94.7198 113.377Z" fill="#95B3EF"/>
<path d="M78.0222 116.841L91.5858 108.721L105.287 107.164L78.0222 116.841Z" fill="#F9DDBF"/>
<path d="M88.7277 108.507L78.0222 116.841L85.9322 104.366L88.7277 108.507Z" fill="#F9DDBF"/>
<path d="M122.085 118.208L122.574 117.631C123.013 118.02 123.464 118.234 124.028 118.234C124.53 118.234 124.843 118.008 124.843 117.644C124.843 117.317 124.655 117.129 123.803 116.928C122.825 116.702 122.261 116.401 122.261 115.535C122.261 114.745 122.925 114.192 123.84 114.192C124.517 114.192 125.044 114.393 125.52 114.77L125.081 115.385C124.668 115.071 124.254 114.908 123.828 114.908C123.352 114.908 123.076 115.146 123.076 115.473C123.076 115.824 123.289 115.987 124.166 116.2C125.144 116.439 125.646 116.79 125.646 117.568C125.646 118.434 124.969 118.949 123.991 118.949C123.314 118.949 122.637 118.698 122.085 118.208Z" fill="#739AF0"/>
<path d="M126.335 117.142C126.335 116.138 127.037 115.322 128.04 115.322C129.143 115.322 129.707 116.2 129.707 117.204C129.707 117.255 129.695 117.393 129.695 117.43H127.137C127.225 117.995 127.626 118.321 128.14 118.321C128.529 118.321 128.805 118.171 129.08 117.907L129.544 118.321C129.218 118.723 128.754 118.974 128.115 118.974C127.112 118.961 126.335 118.221 126.335 117.142ZM128.917 116.891C128.867 116.376 128.566 115.975 128.027 115.975C127.538 115.975 127.2 116.351 127.125 116.891H128.917Z" fill="#739AF0"/>
<path d="M132.653 118.886V118.459C132.415 118.748 132.051 118.961 131.525 118.961C130.86 118.961 130.284 118.585 130.284 117.87C130.284 117.091 130.885 116.728 131.7 116.728C132.126 116.728 132.39 116.79 132.665 116.878V116.815C132.665 116.338 132.365 116.062 131.813 116.062C131.424 116.062 131.136 116.15 130.81 116.276L130.597 115.636C130.986 115.46 131.362 115.347 131.926 115.347C132.954 115.347 133.455 115.887 133.455 116.815V118.886H132.653ZM132.665 117.418C132.465 117.342 132.177 117.28 131.863 117.28C131.362 117.28 131.061 117.481 131.061 117.832C131.061 118.158 131.362 118.346 131.738 118.346C132.264 118.346 132.665 118.045 132.665 117.619V117.418Z" fill="#739AF0"/>
<path d="M134.396 115.397H135.198V116.188C135.411 115.661 135.825 115.309 136.426 115.335V116.175H136.376C135.674 116.175 135.185 116.627 135.185 117.556V118.886H134.383V115.397H134.396Z" fill="#739AF0"/>
<path d="M136.815 117.142C136.815 116.15 137.58 115.322 138.62 115.322C139.284 115.322 139.686 115.56 140.012 115.924L139.51 116.464C139.272 116.2 139.009 116.025 138.608 116.025C138.031 116.025 137.605 116.527 137.605 117.154C137.605 117.782 138.031 118.284 138.645 118.284C139.021 118.284 139.297 118.108 139.548 117.844L140.024 118.321C139.686 118.71 139.272 118.974 138.595 118.974C137.58 118.961 136.815 118.146 136.815 117.142Z" fill="#739AF0"/>
<path d="M140.764 114.054H141.566V115.937C141.792 115.611 142.118 115.322 142.657 115.322C143.446 115.322 143.898 115.849 143.898 116.665V118.886H143.095V116.903C143.095 116.364 142.82 116.05 142.343 116.05C141.879 116.05 141.553 116.376 141.553 116.916V118.886H140.751V114.054H140.764Z" fill="#739AF0"/>
<path d="M144.813 117.97H145.69V118.874H144.813V117.97Z" fill="#739AF0"/>
<path d="M146.58 117.97H147.458V118.874H146.58V117.97Z" fill="#739AF0"/>
<path d="M148.36 117.97H149.238V118.874H148.36V117.97Z" fill="#739AF0"/>
<path d="M150.14 117.97H151.018V118.874H150.14V117.97Z" fill="#739AF0"/>
<path d="M196.322 161.443C196.322 160.966 196.71 160.59 197.174 160.59C197.651 160.59 198.027 160.979 198.027 161.443C198.027 161.908 197.638 162.297 197.174 162.297C196.698 162.297 196.322 161.92 196.322 161.443Z" fill="#D7E5FF"/>
<path d="M236.073 161.682H197.4C197.275 161.682 197.174 161.581 197.174 161.456C197.174 161.33 197.275 161.23 197.4 161.23H236.073C236.198 161.23 236.298 161.33 236.298 161.456C236.311 161.569 236.198 161.682 236.073 161.682Z" fill="#D7E5FF"/>
</svg>
