<svg width="52" height="52" viewBox="0 0 52 52" fill="none" xmlns="http://www.w3.org/2000/svg">
<circle cx="26" cy="26" r="26" fill="#D6D6D6"/>
<path d="M40.5759 36.5894L36.0807 28.7031C35.9676 28.7762 35.85 28.8449 35.7335 28.9131C35.4119 29.1012 35.1088 29.2787 34.9576 29.5048C34.8043 29.7342 34.7553 30.0845 34.7037 30.4558C34.6345 30.9516 34.5626 31.4644 34.2186 31.8083C33.875 32.1519 33.3626 32.223 32.8669 32.2922C32.496 32.344 32.1452 32.3927 31.9164 32.5463C31.6902 32.698 31.5128 33.0011 31.3247 33.3222C31.0701 33.7572 30.807 34.2074 30.3525 34.395C30.0014 34.5404 29.5327 34.4707 29.083 34.3622L32.8404 40.9559L34.609 35.5458L40.5759 36.5894Z" fill="#757575"/>
<path d="M36.3072 19.0243C36.1888 18.7383 35.8351 18.5317 35.4611 18.3127C35.1014 18.1025 34.7291 17.8845 34.5087 17.5552C34.2861 17.2224 34.2261 16.7925 34.168 16.3771C34.1087 15.951 34.0527 15.5488 33.8374 15.3335C33.6221 15.1182 33.2194 15.062 32.7936 15.0027C32.3782 14.9448 31.9483 14.8845 31.6155 14.6617C31.2864 14.4418 31.0686 14.0693 30.8579 13.7093C30.6395 13.3355 30.4326 12.9826 30.1471 12.8639C29.8965 12.7598 29.4893 12.848 29.0644 12.9587C28.6548 13.065 28.2041 13.1682 27.8376 13.0961C27.455 13.0204 27.1145 12.7627 26.7854 12.5131C26.4374 12.2493 26.1085 12 25.791 12C25.4749 12 25.146 12.2488 24.7978 12.5124C24.4684 12.7619 24.1273 13.0202 23.7436 13.0957C23.3795 13.1678 22.9267 13.065 22.5168 12.9582C22.0919 12.848 21.6856 12.7598 21.4358 12.8635C21.1491 12.9826 20.943 13.3356 20.7243 13.7095C20.5141 14.0693 20.2966 14.4411 19.9672 14.6615C19.6342 14.8843 19.2045 14.9441 18.789 15.0022C18.3627 15.0615 17.9605 15.1175 17.7452 15.333C17.5292 15.5483 17.4735 15.951 17.4139 16.3773C17.3561 16.7928 17.2963 17.2224 17.0732 17.5552C16.8533 17.8843 16.4806 18.1021 16.1208 18.3128C15.747 18.5317 15.3933 18.7383 15.2749 19.0239C15.1602 19.3012 15.2619 19.6918 15.3697 20.1058C15.476 20.5137 15.586 20.9362 15.5071 21.3328C15.4312 21.7155 15.1734 22.056 14.9241 22.3851C14.6606 22.7337 14.411 23.0624 14.411 23.3797C14.411 23.6963 14.6601 24.0254 14.9241 24.3738C15.1732 24.7032 15.4312 25.0437 15.5071 25.4263C15.586 25.8234 15.4758 26.2454 15.3697 26.6539C15.2619 27.0679 15.1602 27.459 15.2749 27.7358C15.2945 27.783 15.3224 27.8269 15.3535 27.8706C15.4059 27.9422 15.4719 28.0092 15.5493 28.0733C15.6159 28.1283 15.6897 28.1814 15.769 28.2332C15.8792 28.3053 15.9983 28.3757 16.1203 28.4471C16.4803 28.6573 16.8523 28.8753 17.073 29.2047C17.2948 29.5367 17.3549 29.9654 17.413 30.3806C17.4723 30.8076 17.5285 31.211 17.745 31.4266C17.9601 31.6419 18.3625 31.6981 18.7886 31.7574C19.2038 31.8153 19.6337 31.8751 19.966 32.0981C20.2958 32.3185 20.5135 32.6908 20.7243 33.0508C20.9425 33.4245 21.1491 33.7778 21.4351 33.8959C21.6876 34.001 22.0922 33.9118 22.5161 33.8016C22.6323 33.7715 22.7502 33.7418 22.8686 33.7155C22.9839 33.6895 23.0998 33.6668 23.2151 33.6533C23.2961 33.6437 23.3769 33.6379 23.4572 33.6379C23.4832 33.6379 23.5059 33.6437 23.531 33.6447C23.604 33.6483 23.6776 33.6514 23.7446 33.6649C24.1272 33.7406 24.4685 33.9984 24.7978 34.2479C25.146 34.5112 25.4746 34.7603 25.7912 34.7603C26.1085 34.7603 26.4369 34.5115 26.7851 34.2479C27.1143 33.9984 27.4545 33.7406 27.8383 33.6647C27.9063 33.6509 27.9801 33.6492 28.0541 33.6466C28.1571 33.6435 28.2634 33.6476 28.3731 33.6611C28.4865 33.6748 28.6015 33.6938 28.7167 33.7187C28.8349 33.744 28.9525 33.7725 29.0671 33.8021C29.4903 33.9123 29.8956 34.0013 30.1473 33.8969C30.434 33.7785 30.6406 33.4248 30.8598 33.0503C31.0701 32.6905 31.2876 32.3187 31.6167 32.0983C31.949 31.8758 32.3782 31.816 32.7939 31.7581C33.2202 31.6988 33.6229 31.6426 33.8382 31.4273C34.0542 31.2112 34.1104 30.8086 34.1697 30.382C34.2276 29.9673 34.2874 29.5381 34.5099 29.2056C34.7298 28.8764 35.1024 28.6587 35.4624 28.4484C35.5849 28.3768 35.7037 28.3061 35.8142 28.234C35.8937 28.1822 35.9673 28.1289 36.0333 28.0742C36.1107 28.01 36.177 27.943 36.2289 27.8714C36.2602 27.8282 36.2882 27.7839 36.3077 27.7366C36.423 27.4591 36.3215 27.0672 36.2135 26.6528C36.1076 26.2453 35.9977 25.8238 36.0755 25.4273C36.1515 25.044 36.4097 24.7033 36.6593 24.3739C36.9228 24.0257 37.1722 23.6971 37.1722 23.3805C37.1722 23.0639 36.9233 22.7352 36.6598 22.3873C36.4107 22.0579 36.1524 21.7172 36.0772 21.3339C35.9986 20.937 36.1086 20.5147 36.2147 20.1063C36.3203 19.6913 36.4218 19.3007 36.3073 19.0242L36.3072 19.0243ZM25.7908 29.8111C22.2449 29.8111 19.3601 26.9258 19.3601 23.3797C19.3601 19.8338 22.2451 16.949 25.7908 16.949C29.3365 16.949 32.2203 19.834 32.2203 23.3797C32.2203 26.9256 29.3362 29.8111 25.7908 29.8111Z" fill="#757575"/>
<path d="M21.2286 34.3935C20.7748 34.2059 20.5125 33.7565 20.2586 33.3222C20.0705 33.0006 19.8928 32.6968 19.6659 32.5456C19.4361 32.3918 19.0858 32.3428 18.714 32.291C18.2185 32.2218 17.7058 32.1502 17.3629 31.8066C17.0191 31.463 16.9477 30.9498 16.8778 30.4534C16.826 30.0825 16.7773 29.7322 16.6239 29.5029C16.4727 29.2772 16.1691 29.0995 15.848 28.9117C15.7318 28.8437 15.6146 28.7745 15.5013 28.7017L11 36.6015L16.5998 35.732L18.7164 40.9998L22.5001 34.3617C22.0504 34.4704 21.5806 34.5406 21.2286 34.394L21.2286 34.3935Z" fill="#757575"/>
<path d="M25.7908 17.4893C22.5426 17.4893 19.9004 20.1319 19.9004 23.3796C19.9004 26.6278 22.543 29.2707 25.7908 29.2707C29.0386 29.2707 31.6804 26.6278 31.6804 23.3796C31.6804 20.1317 29.0386 17.4893 25.7908 17.4893ZM24.5974 21.4839H26.9843V22.024H24.5974V21.4839ZM28.2473 25.2765H23.3335V24.7364H28.2471L28.2473 25.2765Z" fill="#757575"/>
</svg>
