<svg width="52" height="52" viewBox="0 0 52 52" fill="none" xmlns="http://www.w3.org/2000/svg">
<circle cx="26" cy="26" r="26" fill="#D6D6D6"/>
<path d="M33.2222 24.5547C33.6819 24.5543 34.1223 24.3715 34.4474 24.0464C34.7722 23.7216 34.9552 23.2809 34.9556 22.8214V21.6658C34.9552 21.2063 34.7722 20.7656 34.4474 20.4408C34.1224 20.1157 33.6818 19.933 33.2222 19.9326H31.5871C31.7175 19.7391 31.8169 19.5267 31.8817 19.3028C32.098 18.5697 31.9182 17.777 31.4068 17.2091C30.8953 16.6412 30.126 16.3795 29.3743 16.5179L29.7499 14.2473C29.7802 14.0548 29.7131 13.8599 29.5708 13.7272C29.4257 13.5992 29.2274 13.5496 29.0392 13.5944L26.9765 14.1086L25.4513 13.0974C25.2903 12.9894 25.0857 12.9698 24.9074 13.0456C24.729 13.1214 24.6011 13.2822 24.5672 13.473L23.9778 16.7142L23.3886 13.473C23.3545 13.2822 23.2265 13.1214 23.0482 13.0456C22.8699 12.9698 22.6653 12.9894 22.5045 13.0974L20.9791 14.1084L18.9164 13.5942L18.9166 13.5944C18.7278 13.546 18.5275 13.5962 18.384 13.728C18.2407 13.8597 18.1736 14.055 18.2059 14.2472L18.5815 16.5179C17.8299 16.3795 17.0603 16.6412 16.5488 17.2091C16.0376 17.777 15.8577 18.5697 16.0739 19.3028C16.1388 19.5267 16.2381 19.7391 16.3685 19.9325H14.7334C14.2738 19.9329 13.8333 20.1157 13.5082 20.4408C13.1834 20.7656 13.0006 21.2063 13 21.6658V22.8214C13.0006 23.2809 13.1834 23.7216 13.5082 24.0464C13.8333 24.3715 14.2738 24.5542 14.7334 24.5546L33.2222 24.5547ZM29.2357 17.7771C29.4747 17.6387 29.7584 17.5994 30.0262 17.6673C30.294 17.7354 30.5245 17.9053 30.6684 18.141C30.8149 18.3939 30.8516 18.6958 30.7698 18.9763C30.6878 19.2568 30.4947 19.4916 30.2352 19.626L29.6228 19.9323H25.532L29.2357 17.7771ZM17.287 18.141C17.4308 17.9051 17.6614 17.7348 17.9292 17.6669C18.197 17.5988 18.4809 17.6383 18.7199 17.7771C19.9586 18.4882 21.1895 19.2133 22.4235 19.9323H18.3328L17.7204 19.626H17.7202C17.4611 19.4914 17.2682 19.2564 17.1864 18.9761C17.1046 18.6958 17.141 18.3941 17.2869 18.141L17.287 18.141ZM14.1554 25.6517V37.8433C14.1558 38.303 14.3386 38.7435 14.6637 39.0685C14.9885 39.3934 15.4292 39.5762 15.8887 39.5768H23.3998V25.71H14.7331C14.539 25.71 14.3454 25.6905 14.1554 25.6516L14.1554 25.6517ZM17.0443 33.7989H18.7778H18.7776C19.0968 33.7989 19.3555 34.0574 19.3555 34.3766C19.3555 34.6956 19.0968 34.9543 18.7776 34.9543H17.0444C16.7252 34.9543 16.4666 34.6956 16.4666 34.3766C16.4666 34.0574 16.7252 33.7989 17.0444 33.7989H17.0443ZM17.0443 36.11H18.7778L18.7776 36.1098C19.0968 36.1098 19.3555 36.3686 19.3555 36.6878C19.3555 37.0068 19.0968 37.2655 18.7776 37.2655H17.0444C16.7252 37.2655 16.4666 37.0068 16.4666 36.6878C16.4666 36.3686 16.7252 36.1098 17.0444 36.1098L17.0443 36.11ZM26.2888 37.8435V37.8433C26.291 38.4704 26.4992 39.0794 26.8815 39.5767H24.5554V25.71H29.3919C28.6203 26.242 28.1236 27.088 28.0351 28.0212H28.0015C27.534 28.0423 27.0933 28.2453 26.7732 28.5866C26.4534 28.9282 26.2795 29.381 26.2888 29.8489L26.2888 37.8435ZM33.8 34.3769H38.4223V37.8435L38.4221 37.8433C38.4221 38.3029 38.2395 38.7439 37.9145 39.0689C37.5895 39.3939 37.1485 39.5767 36.6889 39.5767H33.8L33.8 34.3769ZM28.0222 34.3767H32.6445V39.5767H29.7554C29.2958 39.5767 28.8548 39.3939 28.5298 39.0689C28.2048 38.7438 28.0222 38.3029 28.0222 37.8433L28.0222 34.3767ZM39 30.3323V32.0657L38.9998 32.0655C38.9996 32.3718 38.8777 32.6657 38.6611 32.8823C38.4444 33.0989 38.1506 33.2208 37.8443 33.221H28.5998C28.2933 33.2208 27.9997 33.0989 27.7831 32.8823C27.5665 32.6657 27.4446 32.3718 27.4442 32.0655V30.3321C27.4446 30.0258 27.5665 29.7322 27.7831 29.5154C27.9997 29.2987 28.2933 29.177 28.5998 29.1766H31.1997C30.6837 29.1766 30.2069 28.9014 29.949 28.4544C29.6908 28.0074 29.6908 27.4569 29.949 27.0099C30.2069 26.563 30.6837 26.2877 31.1997 26.2877H31.7775C32.1606 26.2877 32.5281 26.4399 32.799 26.7107C33.0698 26.9817 33.2219 27.3491 33.2219 27.7322C33.2219 27.3491 33.3743 26.9817 33.6451 26.7107C33.9159 26.4399 34.2833 26.2877 34.6664 26.2877H35.2443C35.7602 26.2877 36.2372 26.563 36.4951 27.0099C36.7533 27.4569 36.7533 28.0074 36.4951 28.4544C36.2372 28.9014 35.7602 29.1766 35.2443 29.1766H37.8442C38.1505 29.177 38.4443 29.2987 38.661 29.5154C38.8776 29.7322 38.9995 30.0258 38.9997 30.3321L39 30.3323Z" fill="#757575"/>
</svg>
