<svg width="6" height="12" viewBox="0 0 6 12" fill="none" xmlns="http://www.w3.org/2000/svg">
<path d="M3.91683 3.33268C4.65321 3.33268 5.25016 2.73573 5.25016 1.99935C5.25016 1.26297 4.65321 0.666016 3.91683 0.666016C3.18045 0.666016 2.5835 1.26297 2.5835 1.99935C2.5835 2.73573 3.18045 3.33268 3.91683 3.33268Z" fill="#686868"/>
<path d="M5.28014 8.74328C5.2433 8.7185 5.20189 8.70133 5.15833 8.69277C5.11477 8.68421 5.06994 8.68444 5.02647 8.69345C4.983 8.70245 4.94177 8.72005 4.90519 8.74521C4.86861 8.77036 4.83743 8.80257 4.81347 8.83994C4.49123 9.31716 4.09648 9.74115 3.64347 10.0966C3.53347 10.1799 3.12347 10.4966 2.95014 10.4299C2.83014 10.3933 2.90014 10.1566 2.92347 10.0566L3.10014 9.53328C3.17347 9.31994 4.45014 5.53328 4.59014 5.09994C4.7968 4.46661 4.7068 3.84328 3.76347 3.99328C3.5068 4.01994 0.90347 4.35661 0.856804 4.35994C0.81303 4.36279 0.770245 4.37423 0.730892 4.39361C0.691539 4.41299 0.656388 4.43993 0.627447 4.47289C0.598506 4.50586 0.576342 4.5442 0.562219 4.58573C0.548096 4.62726 0.542292 4.67117 0.545137 4.71494C0.547982 4.75872 0.559422 4.8015 0.578802 4.84085C0.598182 4.88021 0.625124 4.91536 0.658089 4.9443C0.691053 4.97324 0.729396 4.9954 0.770926 5.00953C0.812457 5.02365 0.856363 5.02945 0.900137 5.02661C0.900137 5.02661 1.90014 4.89661 2.01014 4.88661C2.06648 4.88111 2.12321 4.89203 2.17349 4.91805C2.22376 4.94408 2.26543 4.9841 2.29347 5.03328C2.35387 5.21999 2.34559 5.42213 2.27014 5.60328C2.18347 5.93661 0.81347 9.79661 0.770137 10.0199C0.72366 10.2068 0.736564 10.4036 0.807056 10.5828C0.877548 10.762 1.00213 10.9148 1.16347 11.0199C1.46631 11.2218 1.82689 11.319 2.19014 11.2966C2.54333 11.2923 2.89262 11.2222 3.22014 11.0899C4.05014 10.7566 4.9168 9.86994 5.37347 9.17328C5.41279 9.10249 5.42501 9.01982 5.40783 8.94069C5.39066 8.86156 5.34527 8.79139 5.28014 8.74328V8.74328Z" fill="#686868"/>
</svg>
