<svg width="12" height="13" viewBox="0 0 12 13" fill="none" xmlns="http://www.w3.org/2000/svg">
<path d="M7 3.32596V0H0.75C0.334375 0 0 0.261674 0 0.586933V11.9343C0 12.2596 0.334375 12.5212 0.75 12.5212H11.25C11.6656 12.5212 12 12.2596 12 11.9343V3.91289H7.75C7.3375 3.91289 7 3.64877 7 3.32596ZM9 9.09747C9 9.25887 8.83125 9.39093 8.625 9.39093H3.375C3.16875 9.39093 3 9.25887 3 9.09747V8.90182C3 8.74042 3.16875 8.60836 3.375 8.60836H8.625C8.83125 8.60836 9 8.74042 9 8.90182V9.09747ZM9 7.53231C9 7.69372 8.83125 7.82578 8.625 7.82578H3.375C3.16875 7.82578 3 7.69372 3 7.53231V7.33667C3 7.17526 3.16875 7.0432 3.375 7.0432H8.625C8.83125 7.0432 9 7.17526 9 7.33667V7.53231ZM9 5.77151V5.96716C9 6.12856 8.83125 6.26062 8.625 6.26062H3.375C3.16875 6.26062 3 6.12856 3 5.96716V5.77151C3 5.61011 3.16875 5.47805 3.375 5.47805H8.625C8.83125 5.47805 9 5.61011 9 5.77151ZM12 2.98113V3.13031H8V0H8.19063C8.39062 0 8.58125 0.0611389 8.72188 0.171189L11.7812 2.56783C11.9219 2.67788 12 2.82706 12 2.98113Z" fill="#686868"/>
</svg>
