<svg width="15" height="15" viewBox="0 0 15 15" fill="none" xmlns="http://www.w3.org/2000/svg">
<path d="M7.56348 9.92462L9.95259 8.72962V6.37305L7.56348 7.56805V9.92462Z" fill="#686868"/>
<path d="M10.0908 8.67697L12.4799 7.48157V5.125L10.0908 6.32001V8.67697Z" fill="#686868"/>
<path d="M12.6108 7.3995L15.0001 6.20423V3.84766L12.6108 5.04293V7.3995Z" fill="#686868"/>
<path d="M4.90279 8.66512L2.51367 7.46972V5.11328L4.90279 6.30829V8.66512Z" fill="#686868"/>
<path d="M2.38912 7.4129L0 6.2179V3.86133L2.38912 5.05633V7.4129Z" fill="#686868"/>
<path d="M7.42832 12.4616L5.03906 11.2666V8.91016L7.42832 10.1052V12.4616Z" fill="#686868"/>
<path d="M12.6108 9.93634L15.0001 8.74134V6.38477L12.6108 7.5799V9.93634Z" fill="#686868"/>
<path d="M4.90279 11.2021L2.51367 10.007V7.65039L4.90279 8.8454V11.2021Z" fill="#686868"/>
<path d="M7.42832 15.0007L5.03906 13.8057V11.4492L7.42832 12.6442V15.0007Z" fill="#686868"/>
<path d="M7.56348 15.0007L9.95259 13.8057V11.4492L7.56348 12.6442V15.0007Z" fill="#686868"/>
<path d="M10.0908 13.7529L12.4799 12.5579V10.2012L10.0908 11.396V13.7529Z" fill="#686868"/>
<path d="M2.38912 12.4889L0 11.2939V8.9375L2.38912 10.1325V12.4889Z" fill="#686868"/>
<path d="M9.88627 6.2609L7.49267 5.06055L5.09961 6.2609L7.49267 7.46125L9.88627 6.2609Z" fill="#686868"/>
<path d="M7.36598 4.99306L4.97278 3.79297L2.57959 4.99306L4.97278 6.19351L7.36598 4.99306Z" fill="#686868"/>
<path d="M7.36123 2.47366L4.9679 1.27344L2.57471 2.47366L4.9679 3.67401L7.36123 2.47366Z" fill="#686868"/>
<path d="M14.937 3.7316L12.544 2.53125L10.1504 3.7316L12.544 4.93195L14.937 3.7316Z" fill="#686868"/>
<path d="M9.88627 1.20621L7.49267 0.00585938L5.09961 1.20621L7.49267 2.40643L9.88627 1.20621Z" fill="#686868"/>
<path d="M7.49267 5.06055L5.09961 6.2609L7.49267 7.46125L9.886 6.2609L7.49267 5.06055ZM5.31254 6.261L7.49267 5.16741L9.67307 6.261L7.49267 7.35458L5.31254 6.261Z" fill="#686868"/>
<path d="M4.96763 3.79297L2.57471 4.99332L4.96763 6.19367L7.36109 4.99332L4.96763 3.79297ZM2.78764 4.99319L4.96777 3.8996L7.14817 4.99319L4.96777 6.08677L2.78764 4.99319Z" fill="#686868"/>
<path d="M2.44224 2.53516L0.0493164 3.73551L2.44224 4.93586L4.8357 3.73551L2.44224 2.53516ZM0.26211 3.73524L2.44224 2.64166L4.62251 3.73524L2.44224 4.82883L0.26211 3.73524Z" fill="#686868"/>
<path d="M10.0234 3.79883L7.63037 4.99918L10.0233 6.19953L12.4166 4.99918L10.0234 3.79883ZM7.8433 4.99918L10.0234 3.9056L12.2038 4.99918L10.0234 6.09276L7.8433 4.99918Z" fill="#686868"/>
<path d="M7.49742 2.53125L5.10449 3.7316L7.49742 4.93195L9.89115 3.7316L7.49742 2.53125ZM5.31742 3.73134L7.49742 2.63775L9.67782 3.73134L7.49742 4.82492L5.31742 3.73134Z" fill="#686868"/>
<path d="M4.97265 1.27344L2.57959 2.47379L4.97265 3.67414L7.36611 2.47379L4.97265 1.27344ZM2.79252 2.47366L4.97265 1.38007L7.15291 2.47366L4.97265 3.56724L2.79252 2.47366Z" fill="#686868"/>
<path d="M12.5433 2.52539L10.1504 3.72574L12.5433 4.9261L14.9366 3.72574L12.5433 2.52539ZM10.3632 3.72561L12.5433 2.63203L14.7237 3.72561L12.5433 4.81919L10.3632 3.72561Z" fill="#686868"/>
<path d="M10.0179 1.25781L7.625 2.45816L10.0179 3.65825L12.4117 2.45816L10.0179 1.25781ZM7.83779 2.45816L10.0179 1.36458L12.1983 2.45816L10.0179 3.55148L7.83779 2.45816Z" fill="#686868"/>
<path d="M7.49267 0L5.09961 1.20035L7.49267 2.4007L9.88613 1.20035L7.49267 0ZM5.31254 1.20022L7.49267 0.106635L9.67307 1.20022L7.49267 2.2938L5.31254 1.20022Z" fill="#686868"/>
<path d="M12.6108 5.04293V7.39936L15.0001 6.20436V3.84766L12.6108 5.04293ZM14.8896 6.16115L12.7214 7.2455V5.10739L14.8896 4.0229V6.16115Z" fill="#686868"/>
<path d="M10.0908 6.32001V8.67671L12.4799 7.48144V5.125L10.0908 6.32001ZM12.3695 7.43823L10.2013 8.52272V6.38446L12.3695 5.30011V7.43823Z" fill="#686868"/>
<path d="M7.56348 7.56805V9.92462L9.95273 8.72935V6.37305L7.56348 7.56805ZM9.84226 8.68641L7.67408 9.7709V7.63264L9.84226 6.54803V8.68641Z" fill="#686868"/>
<path d="M0 3.86133V6.21776L2.38925 7.41277V5.05647L0 3.86133ZM0.110478 4.03658L2.27852 5.12094V7.25932L0.110478 6.17483V4.03658Z" fill="#686868"/>
<path d="M2.51025 5.11328V7.46972L4.89964 8.66472V6.30829L2.51025 5.11328ZM2.62087 5.28841L4.78891 6.37276V8.51128L2.62087 7.42679V5.28841Z" fill="#686868"/>
<path d="M5.03662 6.375V8.73157L7.42601 9.92657L7.42614 7.57027L5.03662 6.375ZM5.14723 6.55026L7.31528 7.63461V9.77312L5.14723 8.68864V6.55026Z" fill="#686868"/>
<path d="M12.6108 7.57782V9.93439L15.0001 8.73912V6.38281L12.6108 7.57782ZM14.8896 8.69644L12.7214 9.78066V7.64241L14.8896 6.55793V8.69644Z" fill="#686868"/>
<path d="M10.0908 8.85516V11.2119L12.4799 10.0166V7.66016L10.0908 8.85516ZM12.3695 9.97365L10.2013 11.0581V8.91962L12.3695 7.8354V9.97365Z" fill="#686868"/>
<path d="M7.56348 10.1035V12.4599L9.95273 11.2646V8.9082L7.56348 10.1035ZM9.84226 11.2216L7.67408 12.3062V10.1679L9.84226 9.08345V11.2216Z" fill="#686868"/>
<path d="M0 6.39648V8.75319L2.38925 9.94819V7.59162L0 6.39648ZM0.110478 6.57161L2.27865 7.65623V9.79448L0.110613 8.70999V6.57161H0.110478Z" fill="#686868"/>
<path d="M2.51025 7.64844V10.0047L4.89964 11.1997V8.84344L2.51025 7.64844ZM2.62087 7.8233L4.78891 8.90779V11.046L2.62087 9.96182V7.8233Z" fill="#686868"/>
<path d="M5.03662 8.91016V11.2666L7.42601 12.4616L7.42614 10.1052L5.03662 8.91016ZM5.14723 9.08502L7.31528 10.1695V12.3078L5.14723 11.2235V9.08502Z" fill="#686868"/>
<path d="M12.6108 10.1149V12.4714L15.0001 11.2764V8.91992L12.6108 10.1149ZM14.8896 11.2334L12.7214 12.3175V10.1794L14.8896 9.09493V11.2334Z" fill="#686868"/>
<path d="M10.0908 11.3923V13.749L12.4799 12.5537V10.1973L10.0908 11.3923ZM12.3695 12.5108L10.2013 13.5952V11.4567L12.3695 10.3725V12.5108Z" fill="#686868"/>
<path d="M7.56348 12.6406V14.997L9.95273 13.8017V11.4453L7.56348 12.6406ZM9.84226 13.7585L7.67408 14.843V12.705L9.84226 11.6206V13.7585Z" fill="#686868"/>
<path d="M0 8.93555V11.292L2.38925 12.487V10.1306L0 8.93555ZM0.110478 9.11028L2.27852 10.1948V12.333L0.110478 11.2485V9.11028Z" fill="#686868"/>
<path d="M2.51025 10.1855V12.542L4.89964 13.737V11.3806L2.51025 10.1855ZM2.62087 10.3608L4.78891 11.445V13.5835L2.62087 12.4991V10.3608Z" fill="#686868"/>
<path d="M5.03662 11.4492V13.8057L7.42601 15.0007L7.42614 12.6442L5.03662 11.4492ZM5.14723 11.6242L7.31528 12.7087V14.847L5.14723 13.7627V11.6242Z" fill="#686868"/>
</svg>
