<svg width="15" height="12" viewBox="0 0 15 12" fill="none" xmlns="http://www.w3.org/2000/svg">
<path d="M7.49999 2.34375C7.22398 2.3486 6.95001 2.39793 6.68644 2.49023C6.80836 2.73144 6.87327 3.00378 6.87499 3.28125C6.87499 3.4967 6.83726 3.71004 6.76398 3.90909C6.69069 4.10814 6.58327 4.289 6.44785 4.44135C6.31243 4.59369 6.15166 4.71454 5.97473 4.79699C5.7978 4.87944 5.60816 4.92188 5.41665 4.92188C5.17001 4.91995 4.92793 4.84692 4.71353 4.70977C4.54437 5.36976 4.56408 6.07291 4.76988 6.7196C4.97568 7.36629 5.35712 7.92375 5.86019 8.313C6.36325 8.70226 6.96242 8.90358 7.57284 8.88845C8.18326 8.87332 8.77397 8.64251 9.26131 8.2287C9.74864 7.8149 10.1079 7.23909 10.2882 6.58283C10.4685 5.92657 10.4606 5.22313 10.2658 4.57215C10.071 3.92117 9.699 3.35566 9.20261 2.95572C8.70621 2.55578 8.11055 2.34168 7.49999 2.34375ZM14.9094 5.19727C13.4971 2.09736 10.7013 0 7.49999 0C4.29868 0 1.50207 2.09883 0.0906108 5.19756C0.0310383 5.33013 0 5.4766 0 5.62515C0 5.77369 0.0310383 5.92016 0.0906108 6.05273C1.50285 9.15264 4.29868 11.25 7.49999 11.25C10.7013 11.25 13.4979 9.15117 14.9094 6.05244C14.9689 5.91987 15 5.7734 15 5.62485C15 5.47631 14.9689 5.32984 14.9094 5.19727ZM7.49999 9.84375C4.93097 9.84375 2.57577 8.23242 1.30389 5.625C2.57577 3.01758 4.93071 1.40625 7.49999 1.40625C10.0693 1.40625 12.4242 3.01758 13.6961 5.625C12.4245 8.23242 10.0693 9.84375 7.49999 9.84375Z" fill="#686868"/>
</svg>
