<svg width="15" height="13" viewBox="0 0 15 13" fill="none" xmlns="http://www.w3.org/2000/svg">
<path d="M7.30113 3.38101L2.5002 7.66557V12.2899C2.5002 12.4096 2.54409 12.5244 2.62223 12.6091C2.70036 12.6937 2.80633 12.7413 2.91683 12.7413L5.83484 12.7331C5.94497 12.7325 6.05041 12.6847 6.1281 12.6001C6.20578 12.5155 6.24939 12.401 6.24939 12.2817V9.58114C6.24939 9.46141 6.29328 9.34658 6.37142 9.26192C6.44955 9.17725 6.55552 9.12969 6.66602 9.12969H8.33256C8.44306 9.12969 8.54903 9.17725 8.62717 9.26192C8.7053 9.34658 8.7492 9.46141 8.7492 9.58114V12.2797C8.74902 12.3391 8.75967 12.398 8.78053 12.4529C8.8014 12.5078 8.83206 12.5578 8.87076 12.5998C8.90947 12.6419 8.95546 12.6753 9.00609 12.6981C9.05672 12.7208 9.11101 12.7326 9.16583 12.7326L12.0828 12.7413C12.1933 12.7413 12.2993 12.6937 12.3774 12.6091C12.4555 12.5244 12.4994 12.4096 12.4994 12.2899V7.66247L7.69954 3.38101C7.64311 3.33172 7.57281 3.30484 7.50033 3.30484C7.42785 3.30484 7.35756 3.33172 7.30113 3.38101ZM14.8847 6.29316L12.7077 4.34881V0.44064C12.7077 0.350841 12.6748 0.264719 12.6162 0.201221C12.5576 0.137724 12.4781 0.102051 12.3953 0.102051H10.937C10.8542 0.102051 10.7747 0.137724 10.7161 0.201221C10.6575 0.264719 10.6246 0.350841 10.6246 0.44064V2.48939L8.29324 0.411014C8.06951 0.211522 7.78877 0.10245 7.49903 0.10245C7.20929 0.10245 6.92855 0.211522 6.70482 0.411014L0.113402 6.29316C0.081761 6.3215 0.0555827 6.35631 0.0363633 6.39562C0.017144 6.43492 0.00526021 6.47794 0.00139108 6.52223C-0.00247805 6.56651 0.00174327 6.61119 0.0138138 6.6537C0.0258844 6.69621 0.0455677 6.73573 0.0717389 6.77L0.73575 7.64469C0.76185 7.67908 0.793953 7.70755 0.830222 7.72848C0.86649 7.74941 0.906211 7.76238 0.947112 7.76665C0.988013 7.77093 1.02929 7.76641 1.06858 7.75338C1.10787 7.74034 1.1444 7.71904 1.17608 7.69069L7.30113 2.22416C7.35756 2.17487 7.42785 2.148 7.50033 2.148C7.57281 2.148 7.64311 2.17487 7.69954 2.22416L13.8248 7.69069C13.8565 7.71904 13.8929 7.74037 13.9322 7.75345C13.9714 7.76653 14.0126 7.7711 14.0535 7.76691C14.0944 7.76272 14.1341 7.74984 14.1704 7.72902C14.2066 7.70819 14.2388 7.67983 14.2649 7.64554L14.9289 6.77085C14.9551 6.73638 14.9747 6.69666 14.9866 6.65396C14.9985 6.61126 15.0026 6.56642 14.9984 6.52203C14.9943 6.47764 14.9822 6.43457 14.9626 6.39529C14.9431 6.35601 14.9166 6.3213 14.8847 6.29316Z" fill="black"/>
</svg>
