<svg width="15" height="15" viewBox="0 0 15 15" fill="none" xmlns="http://www.w3.org/2000/svg">
<path d="M14.1183 2.9157V0H2.51101C1.28049 0.0505527 0.00909153 0.707864 0.00909153 1.83705C0.00909153 1.93815 -0.0113644 2.19104 0.00909153 2.29213V13.2303C0.111659 14.3427 1.40353 14.9494 2.65449 14.9494L14.9795 15L15 3.74159V2.91572L14.1183 2.9157ZM7.49435 12.691C7.26876 12.9269 6.94061 13.0786 6.57155 13.1123C6.20249 13.1461 5.85371 13.0618 5.54617 12.8596C5.25907 12.6742 5.07453 12.4045 5.03348 12.1012C4.99243 11.7978 5.09499 11.5112 5.34104 11.2585C5.52557 11.0731 5.7922 10.9382 6.07931 10.8708C6.40746 11.4439 6.98168 11.7135 6.98168 11.7304C7.02273 11.7472 7.08425 11.7641 7.1253 11.7641C7.22787 11.7641 7.33044 11.7304 7.35089 11.6461C7.4124 11.528 7.37135 11.3764 7.24833 11.3258C7.20727 11.309 5.89479 10.6517 6.67411 9.32018C6.73563 9.20214 6.69457 9.05049 6.53049 8.99992C6.38687 8.94937 6.20234 8.98311 6.14081 9.11796C5.83325 9.6404 5.7922 10.0787 5.85371 10.4157C5.46403 10.5 5.09497 10.6854 4.82833 10.9551C4.58229 11.2248 4.43865 11.5281 4.37717 11.8652C4.17203 11.8484 3.88495 11.7809 3.65933 11.5955C3.43374 11.4269 3.31072 11.1573 3.31072 10.8201C3.31072 10.382 3.4748 10.0448 3.80294 9.84262C4.09003 9.67403 4.37715 9.67403 4.47969 9.69096C4.60271 9.74151 4.72573 9.74151 4.8283 9.67415C4.95132 9.57304 4.95132 9.4382 4.8283 9.35389C4.62316 9.1853 4.13108 9.21905 3.78245 9.33708C3.61837 9.38763 3.43384 9.48874 3.24929 9.64039C2.85961 9.06739 2.96219 8.46065 3.14672 8.05609C3.18778 8.14039 3.24929 8.19094 3.29034 8.24149C3.22883 8.42689 3.18778 8.6291 3.26989 8.83144L3.26974 8.84825C3.26974 8.96629 3.37231 9.03365 3.47488 9.0842C3.49533 9.0842 3.51593 9.10101 3.53639 9.10101C3.68001 9.10101 3.76198 9.01672 3.82349 8.93242C3.84394 8.88187 3.82349 8.83132 3.82349 8.79758C3.78243 8.62899 3.65941 8.12348 4.84887 7.70213C4.99249 7.66839 5.054 7.51673 4.99249 7.39882C4.95143 7.28079 4.7669 7.23024 4.62343 7.28079C4.17226 7.43245 3.86468 7.61784 3.61852 7.83697C3.45444 7.55047 3.41338 7.28079 3.4955 7.0111C3.63912 6.62349 4.06971 6.337 4.39787 6.18523C4.5824 6.85932 5.27962 7.36497 6.14108 7.43244C6.18214 7.61784 6.30516 7.83697 6.48969 8.00545C6.53075 8.03919 6.63331 8.08974 6.69483 8.08974C6.75634 8.08974 6.83845 8.07293 6.89996 8.00545C7.02298 7.90434 7.02298 7.7695 6.89996 7.68519C6.42832 7.29758 6.73588 6.5728 6.73588 6.55598C6.77694 6.43795 6.71543 6.28629 6.5718 6.26948C6.42818 6.23574 6.24365 6.28629 6.22319 6.40433C6.20274 6.42114 6.12063 6.67402 6.07957 6.96051C5.42325 6.87621 4.89013 6.40433 4.89013 5.83129C4.89013 5.20773 5.52583 4.68529 6.28457 4.68529C7.02284 4.68529 7.63811 5.1572 7.65858 5.78073V5.81447V11.8819C7.80192 12.1515 7.71995 12.4549 7.49436 12.6908L7.49435 12.691ZM12.7238 9.55614C12.5392 9.40448 12.3341 9.30338 12.1906 9.25283C11.842 9.13479 11.3498 9.10117 11.1448 9.26964C11.0218 9.37074 11.0218 9.50559 11.1448 9.58989C11.2473 9.67418 11.3908 9.691 11.4934 9.6067C11.596 9.58989 11.8831 9.58989 12.1701 9.75836C12.4983 9.94376 12.6624 10.2808 12.6624 10.7359C12.7649 11.1235 12.6419 11.3932 12.4163 11.5786C12.2112 11.7472 11.9036 11.8145 11.6985 11.8483C11.678 11.528 11.5344 11.191 11.2473 10.9382C11.0013 10.6685 10.6116 10.4831 10.2219 10.3988C10.2834 10.0281 10.2424 9.58988 9.93482 9.10106C9.87331 8.98302 9.70923 8.93247 9.54514 8.98302C9.38106 9.03357 9.34001 9.16842 9.40152 9.30328C10.2013 10.6347 8.88883 11.292 8.82731 11.3089C8.68369 11.3595 8.64277 11.5111 8.72474 11.6292C8.7658 11.7135 8.86836 11.7472 8.95033 11.7472C8.99139 11.7472 9.0529 11.7304 9.09396 11.7135C9.11441 11.7135 9.6886 11.427 9.99632 10.8539C10.2834 10.9045 10.5295 11.0393 10.7346 11.2416C10.9602 11.4775 11.0832 11.7809 11.0422 12.0843C11.0011 12.3876 10.837 12.6573 10.5295 12.8427C10.2424 13.028 9.87315 13.1292 9.50408 13.0954C9.13502 13.0617 8.80686 12.9268 8.58128 12.6741C8.35569 12.4381 8.23267 12.1347 8.27373 11.8314L8.27358 5.74711V5.71337C8.29404 5.12342 8.9299 4.61792 9.64759 4.61792C10.4063 4.61792 11.042 5.14036 11.042 5.76393C11.042 6.33693 10.5293 6.79202 9.85259 6.89314C9.83214 6.58983 9.72957 6.35375 9.70897 6.33696C9.66791 6.21893 9.50383 6.15156 9.36036 6.20211C9.21674 6.23586 9.13477 6.3707 9.19628 6.48862C9.19628 6.50543 9.50383 7.23022 9.0322 7.61783C8.90918 7.71893 8.92963 7.87059 9.0322 7.93808C9.07326 7.97182 9.17582 8.02238 9.23734 8.02238C9.29885 8.02238 9.38096 8.00556 9.44247 7.93808C9.6476 7.76949 9.75003 7.5673 9.79108 7.36508C10.6319 7.31453 11.3496 6.79208 11.5343 6.11786C11.8625 6.26952 12.2726 6.55603 12.4367 6.94373C12.5392 7.19649 12.4777 7.46617 12.3136 7.7696C12.0881 7.56739 11.7599 7.36508 11.3087 7.21342C11.1651 7.17968 10.9806 7.21342 10.9397 7.33146C10.8986 7.44949 10.9397 7.60115 11.0833 7.63477C12.2727 8.05612 12.1497 8.54482 12.1087 8.73021C12.0882 8.76395 12.0882 8.81451 12.1087 8.86506C12.1291 8.98309 12.2523 9.03365 12.3958 9.03365C12.4162 9.03365 12.4368 9.03365 12.4573 9.01683C12.6009 9.00002 12.6624 8.8988 12.6624 8.78089V8.76408C12.7035 8.56186 12.7035 8.35955 12.642 8.17413C12.683 8.12357 12.7445 8.03928 12.7856 7.98873C12.9903 8.39316 13.1135 8.9999 12.7238 9.55608L12.7238 9.55614ZM13.1135 1.07862H6.55104C6.38696 1.07862 6.22289 1.19665 6.22289 1.34831C6.22289 1.48316 6.36651 1.618 6.55104 1.618H13.1135V2.9326L2.34699 2.94942C1.75234 2.89886 1.17799 2.59542 1.03451 2.10672V1.66855C1.17813 1.12916 1.93688 0.876415 2.67515 0.876415H13.1135L13.1135 1.07862Z" fill="#686868"/>
</svg>
