<svg width="16" height="12" viewBox="0 0 16 12" fill="none" xmlns="http://www.w3.org/2000/svg">
<path d="M15.7786 6.39154L10.445 11.5287C9.96875 11.9874 9.14331 11.6663 9.14331 11.0089V8.07336H4.82564C4.40339 8.07336 4.06369 7.74617 4.06369 7.33947V4.40394C4.06369 3.99725 4.40339 3.67006 4.82564 3.67006H9.14331V0.734533C9.14331 0.0801543 9.96557 -0.243977 10.445 0.214699L15.7786 5.35188C16.0738 5.63931 16.0738 6.10411 15.7786 6.39154ZM6.09554 11.3758V10.1527C6.09554 9.95087 5.9241 9.78575 5.71457 9.78575H3.04777C2.48584 9.78575 2.03185 9.34848 2.03185 8.80724V2.93618C2.03185 2.39494 2.48584 1.95767 3.04777 1.95767H5.71457C5.9241 1.95767 6.09554 1.79255 6.09554 1.59073V0.367592C6.09554 0.165774 5.9241 0.00065036 5.71457 0.00065036H3.04777C1.36515 0.00065036 0 1.31552 0 2.93618V8.80724C0 10.4279 1.36515 11.7428 3.04777 11.7428H5.71457C5.9241 11.7428 6.09554 11.5776 6.09554 11.3758Z" fill="#686868"/>
</svg>
