<svg width="15" height="14" viewBox="0 0 15 14" fill="none" xmlns="http://www.w3.org/2000/svg">
<path d="M9.75 9.33333H10.875C11.0625 9.33333 11.25 9.1 11.25 8.86667V3.96667C11.25 3.73333 11.0625 3.5 10.875 3.5H9.75C9.5625 3.5 9.375 3.73333 9.375 3.96667V8.86667C9.375 9.1 9.5625 9.33333 9.75 9.33333ZM12.5625 9.33333H13.6875C13.875 9.33333 14.0625 9.1 14.0625 8.86667V0.466667C14.0625 0.233333 13.875 0 13.6875 0H12.5625C12.375 0 12.1875 0.233333 12.1875 0.466667V8.86667C12.1875 9.1 12.375 9.33333 12.5625 9.33333ZM4.125 9.33333H5.25C5.4375 9.33333 5.625 9.1 5.625 8.86667V6.3C5.625 6.06667 5.4375 5.83333 5.25 5.83333H4.125C3.9375 5.83333 3.75 6.06667 3.75 6.3V8.86667C3.75 9.1 3.9375 9.33333 4.125 9.33333ZM6.9375 9.33333H8.0625C8.25 9.33333 8.4375 9.1 8.4375 8.86667V1.63333C8.4375 1.4 8.25 1.16667 8.0625 1.16667H6.9375C6.75 1.16667 6.5625 1.4 6.5625 1.63333V8.86667C6.5625 9.1 6.75 9.33333 6.9375 9.33333ZM14.5312 11.6667H1.875V0.583333C1.875 0.261042 1.66523 0 1.40625 0H0.46875C0.209766 0 0 0.261042 0 0.583333V12.8333C0 13.4776 0.419824 14 0.9375 14H14.5312C14.7902 14 15 13.739 15 13.4167V12.25C15 11.9277 14.7902 11.6667 14.5312 11.6667Z" fill="#686868"/>
</svg>
