<svg width="15" height="11" viewBox="0 0 15 11" fill="none" xmlns="http://www.w3.org/2000/svg">
<path d="M14.2858 8.39716L13.5137 2.97133C13.3154 1.57591 12.1183 0.541748 10.7087 0.541748H4.29124C2.88166 0.541748 1.68458 1.57591 1.48625 2.97133L0.714162 8.39716C0.558329 9.488 1.40125 10.4584 2.49916 10.4584C2.98083 10.4584 3.43416 10.2672 3.77416 9.92716L5.37499 8.33341H9.625L11.2187 9.92716C11.5587 10.2672 12.0192 10.4584 12.4937 10.4584C13.5987 10.4584 14.4417 9.488 14.2858 8.39716ZM6.79166 4.79175H5.37499V6.20841H4.66666V4.79175H3.25V4.08341H4.66666V2.66675H5.37499V4.08341H6.79166V4.79175ZM9.625 4.08341C9.23541 4.08341 8.91666 3.76466 8.91666 3.37508C8.91666 2.9855 9.23541 2.66675 9.625 2.66675C10.0146 2.66675 10.3333 2.9855 10.3333 3.37508C10.3333 3.76466 10.0146 4.08341 9.625 4.08341ZM11.0417 6.20841C10.6521 6.20841 10.3333 5.88966 10.3333 5.50008C10.3333 5.1105 10.6521 4.79175 11.0417 4.79175C11.4312 4.79175 11.75 5.1105 11.75 5.50008C11.75 5.88966 11.4312 6.20841 11.0417 6.20841Z" fill="#686868"/>
</svg>
