<svg width="15" height="16" viewBox="0 0 15 16" fill="none" xmlns="http://www.w3.org/2000/svg">
<path d="M7.5 7.70538C9.86719 7.70538 11.7857 5.9807 11.7857 3.85269C11.7857 1.72468 9.86719 0 7.5 0C5.13281 0 3.21429 1.72468 3.21429 3.85269C3.21429 5.9807 5.13281 7.70538 7.5 7.70538ZM10.5 8.66856H9.94085C9.19754 8.97557 8.37054 9.15014 7.5 9.15014C6.62946 9.15014 5.8058 8.97557 5.05915 8.66856H4.5C2.01562 8.66856 0 10.4805 0 12.7139V13.966C0 14.7636 0.719866 15.4108 1.60714 15.4108H13.3929C14.2801 15.4108 15 14.7636 15 13.966V12.7139C15 10.4805 12.9844 8.66856 10.5 8.66856Z" fill="#686868"/>
</svg>
