<svg width="15" height="15" viewBox="0 0 15 15" fill="none" xmlns="http://www.w3.org/2000/svg">
<path d="M6.55516 3.6895L4.52986 0.438507C4.44659 0.304771 4.32877 0.194088 4.18789 0.117241C4.04701 0.0403938 3.88786 1.91466e-06 3.72596 0H0.469608C0.0902132 0 -0.131857 0.411136 0.0855257 0.710528L3.34539 5.19605C4.21609 4.41244 5.32351 3.87461 6.55516 3.6895ZM14.5304 0H11.274C10.9447 0 10.6394 0.166486 10.4701 0.438507L8.4448 3.6895C9.67645 3.87461 10.7839 4.41244 11.6546 5.19577L14.9144 0.710528C15.1318 0.411136 14.9097 0 14.5304 0ZM7.49998 4.51487C4.65232 4.51487 2.34373 6.73845 2.34373 9.48123C2.34373 12.224 4.65232 14.4476 7.49998 14.4476C10.3476 14.4476 12.6562 12.224 12.6562 9.48123C12.6562 6.73845 10.3476 4.51487 7.49998 4.51487ZM10.2105 8.95243L9.0993 9.99536L9.36209 11.4689C9.40896 11.733 9.1201 11.9348 8.8743 11.8101L7.49998 11.1145L6.12596 11.8101C5.87986 11.9356 5.59129 11.7327 5.63816 11.4689L5.90096 9.99536L4.78973 8.95243C4.58992 8.76506 4.70037 8.43801 4.97576 8.39964L6.5118 8.18405L7.19822 6.84314C7.26004 6.72236 7.37957 6.66282 7.49939 6.66282C7.6198 6.66282 7.74021 6.72321 7.80203 6.84314L8.48846 8.18405L10.0245 8.39964C10.2999 8.43801 10.4103 8.76506 10.2105 8.95243Z" fill="#686868"/>
</svg>
