<svg width="15" height="15" viewBox="0 0 15 15" fill="none" xmlns="http://www.w3.org/2000/svg">
<path d="M0.9375 13.4156C0.9375 13.9864 1.35645 14.4476 1.875 14.4476H6.5625V9.28774H0.9375V13.4156ZM8.4375 14.4476H13.125C13.6436 14.4476 14.0625 13.9864 14.0625 13.4156V9.28774H8.4375V14.4476ZM14.0625 4.12788H12.8291C13.0107 3.73767 13.125 3.30553 13.125 2.83792C13.125 1.27384 11.9678 0 10.5469 0C9.32812 0 8.54004 0.686906 7.5293 2.20261C6.51855 0.686906 5.73047 0 4.51172 0C3.09082 0 1.93359 1.27384 1.93359 2.83792C1.93359 3.30553 2.04492 3.73767 2.22949 4.12788H0.9375C0.418945 4.12788 0 4.58905 0 5.15985V7.73978C0 8.02357 0.210938 8.25577 0.46875 8.25577H14.5312C14.7891 8.25577 15 8.02357 15 7.73978V5.15985C15 4.58905 14.5811 4.12788 14.0625 4.12788ZM4.50879 4.12788C3.86133 4.12788 3.33691 3.55062 3.33691 2.83792C3.33691 2.12522 3.86133 1.54796 4.50879 1.54796C5.0918 1.54796 5.52246 1.65438 7.03125 4.12788H4.50879ZM10.5469 4.12788H8.02441C9.53027 1.66083 9.94922 1.54796 10.5469 1.54796C11.1943 1.54796 11.7188 2.12522 11.7188 2.83792C11.7188 3.55062 11.1943 4.12788 10.5469 4.12788Z" fill="#686868"/>
</svg>
